<svg width="150" height="25" viewBox="0 0 150 25" fill="none" xmlns="http://www.w3.org/2000/svg">
<path d="M112.06 15.715C112.06 12.7303 109.672 10.3852 106.659 10.3852C103.688 10.3852 101.258 12.7303 101.258 15.715C101.258 18.6997 103.688 21.0448 106.659 21.0448C109.672 21.0448 112.06 18.6997 112.06 15.715ZM116.466 6.9883V24.4559H111.974V22.8782C110.411 24.1716 108.435 24.8965 106.289 24.8965C100.974 24.8965 96.8235 20.8174 96.8235 15.715C96.8235 10.6268 100.988 6.53349 106.289 6.53349C108.435 6.53349 110.411 7.25834 111.974 8.55171V6.9883H116.466ZM131.389 20.4905H128.006C126.983 20.4905 126.315 20.0499 126.315 19.1118V10.9395H131.375V6.9883H126.315V2.01381H121.781V6.9883H118.37V10.9537H121.781V20.2347C121.781 22.5798 123.473 24.4417 126.514 24.4417H131.375V20.4905H131.389ZM141.622 24.8965C146.81 24.8965 149.738 22.4661 149.738 19.1118C149.738 16.7241 148.004 14.9475 144.38 14.18L140.542 13.4125C138.325 13.0145 137.614 12.6024 137.614 11.7922C137.614 10.7405 138.68 10.1009 140.656 10.1009C142.802 10.1009 144.365 10.6694 144.82 12.6024H149.312C149.07 8.96388 146.384 6.53349 140.954 6.53349C136.264 6.53349 132.967 8.43801 132.967 12.1191C132.967 14.6632 134.786 16.3261 138.695 17.1363L142.973 18.1027C144.664 18.4296 145.119 18.8702 145.119 19.5524C145.119 20.6468 143.84 21.329 141.779 21.329C139.192 21.329 137.7 20.7605 137.131 18.8276H132.597C133.265 22.4661 136.022 24.8965 141.622 24.8965ZM78.7021 0.791504H95.6296V4.82795H83.2787V10.6126H95.3027V14.5353H83.2787V20.391H95.6296V24.4274H78.7021V0.791504Z" fill="#06C167"/>
<path d="M70.657 10.243V7.07358H69.4489C67.5302 7.07358 66.1089 7.95477 65.2562 9.33342V7.20149H61.8167V24.4132H65.2846V14.6348C65.2846 11.9628 66.9333 10.243 69.2073 10.243H70.657ZM45.6993 14.2226C46.3247 11.5933 48.485 9.83086 51.0575 9.83086C53.6301 9.83086 55.8046 11.579 56.3874 14.2226H45.6993ZM51.1286 6.8746C46.012 6.8746 42.1177 10.9537 42.1177 15.8145C42.1177 20.9453 46.1683 24.797 51.4413 24.797C54.6392 24.797 57.2543 23.4183 59.0025 21.1159L56.4868 19.2966C55.1793 21.0164 53.4595 21.8265 51.4271 21.8265C48.4708 21.8265 46.0973 19.7372 45.614 16.9373H59.8837V15.8287C59.8979 10.6836 56.1884 6.8746 51.1286 6.8746ZM31.2875 21.8265C27.9191 21.8265 25.2328 19.1545 25.2328 15.8571C25.2328 12.5171 27.9475 9.88772 31.2875 9.88772C34.5849 9.88772 37.2995 12.5171 37.2995 15.8571C37.3137 19.1545 34.5991 21.8265 31.2875 21.8265ZM21.836 24.4274H25.2755V22.2671C26.8531 23.8589 29.0987 24.8254 31.5291 24.8254C36.6884 24.8254 40.739 20.8032 40.739 15.8429C40.739 10.8542 36.6884 6.83196 31.5291 6.83196C29.0845 6.83196 26.8815 7.81264 25.3039 9.39027V0.791504H21.836V24.4274ZM9.62714 21.6559C12.9672 21.6559 15.5397 19.1261 15.5397 15.3739V0.791504H19.1497V24.4132H15.5681V22.2245C13.9478 23.8731 11.7164 24.8254 9.20076 24.8254C4.0415 24.8254 0.090332 21.1443 0.090332 15.5728V0.791504H3.7146V15.3739C3.7146 19.1971 6.2587 21.6559 9.62714 21.6559Z" fill="#0D0D0D"/>
</svg>
