<svg width="214" height="26" viewBox="0 0 214 26" fill="none" xmlns="http://www.w3.org/2000/svg">
<path d="M62.4406 7.73271V18.5642H65.1412C65.8304 18.5539 66.5106 18.4056 67.1415 18.1279C67.7723 17.8502 68.3411 17.4487 68.8141 16.9474C69.785 15.9195 70.3162 14.5532 70.2946 13.1395C70.3152 12.4373 70.1968 11.7379 69.9463 11.0816C69.6958 10.4253 69.318 9.82496 68.8348 9.31508C68.3598 8.81301 67.787 8.41348 67.1518 8.14111C66.5166 7.86873 65.8324 7.72928 65.1412 7.73133H62.4419L62.4406 7.73271ZM65.1412 4.3366C70.1748 4.3366 73.9827 8.23675 73.9827 13.1395C73.9827 18.0422 70.1748 21.9644 65.1412 21.9644H59.1849C59.1281 21.9637 59.072 21.9518 59.0199 21.9294C58.9677 21.907 58.9204 21.8745 58.8808 21.8339C58.8411 21.7932 58.8099 21.7451 58.7888 21.6924C58.7677 21.6396 58.7573 21.5833 58.758 21.5265V4.79245C58.758 4.55006 58.9494 4.35313 59.1849 4.35313L65.1412 4.3366ZM86.957 18.9415C89.2431 18.9484 91.3075 17.5423 92.1875 15.3788C92.6186 14.3217 92.7338 13.1623 92.5192 12.041C92.3046 10.9198 91.7693 9.88485 90.9784 9.06168C90.2012 8.25203 89.1967 7.6972 88.0976 7.47049C86.9985 7.24378 85.8565 7.35586 84.8224 7.79193C82.7098 8.68434 81.3299 10.7955 81.3257 13.1395C81.3257 16.3345 83.8432 18.9264 86.9584 18.9415H86.957ZM86.9584 3.93722C92.2564 3.93722 96.3066 8.11281 96.3066 13.1395C96.3066 18.1662 92.2564 22.3418 86.957 22.3418C81.659 22.3418 77.6432 18.1868 77.6432 13.1395C77.6432 8.09215 81.6934 3.93722 86.957 3.93722H86.9584ZM109.176 18.9415C112.293 18.9333 114.814 16.3387 114.812 13.1436C114.808 9.94583 112.28 7.35674 109.165 7.35536C106.047 7.35536 103.519 9.94307 103.515 13.1395C103.515 14.6792 104.111 16.1555 105.173 17.2435C105.693 17.7796 106.315 18.2062 107.002 18.4978C107.689 18.7895 108.428 18.9403 109.175 18.9415H109.176ZM109.175 3.93722C114.456 3.93722 118.507 8.09215 118.507 13.1395C118.507 18.1868 114.44 22.3418 109.175 22.3418C103.911 22.3418 99.8267 18.1868 99.8267 13.1395C99.8267 8.09215 103.877 3.93722 109.175 3.93722ZM130.86 7.73271H127.052V12.3944H130.86C131.161 12.4078 131.461 12.3593 131.743 12.252C132.024 12.1447 132.28 11.9809 132.496 11.7706C132.937 11.3437 133.187 10.7515 133.193 10.129C133.204 9.81319 133.151 9.4984 133.037 9.20352C132.924 8.90865 132.752 8.63977 132.532 8.41303C132.316 8.1899 132.055 8.01445 131.767 7.898C131.479 7.78154 131.17 7.72664 130.86 7.73684V7.73271ZM123.368 4.79245C123.368 4.55006 123.561 4.35313 123.796 4.35313H130.966C134.384 4.35313 136.857 6.92156 136.857 10.1469C136.884 12.3283 135.692 14.3321 133.791 15.3085L137.097 21.3034C137.143 21.3723 137.169 21.4525 137.172 21.5352C137.174 21.6178 137.154 21.6997 137.114 21.7716C137.074 21.8424 137.014 21.9003 136.943 21.9384C136.871 21.9765 136.79 21.9932 136.709 21.9864H133.807C133.727 21.9876 133.647 21.966 133.579 21.924C133.51 21.8821 133.454 21.8216 133.419 21.7496L130.232 15.8167H127.038V21.5127C127.039 21.5696 127.029 21.6261 127.008 21.679C126.987 21.7319 126.956 21.7802 126.916 21.821C126.876 21.8618 126.829 21.8944 126.777 21.9169C126.724 21.9394 126.668 21.9513 126.611 21.952H123.816C123.759 21.9513 123.703 21.9394 123.65 21.9169C123.598 21.8944 123.551 21.8618 123.511 21.821C123.471 21.7802 123.44 21.7319 123.419 21.679C123.398 21.6261 123.388 21.5696 123.389 21.5127L123.369 4.79382L123.368 4.79245ZM146.459 7.81534V18.6482H149.158C149.847 18.6388 150.528 18.4914 151.159 18.2147C151.79 17.9379 152.359 17.5374 152.833 17.0369C153.804 16.0102 154.336 14.6449 154.316 13.2318C154.338 12.5287 154.221 11.8282 153.971 11.1707C153.721 10.5131 153.344 9.91151 152.86 9.40047C152.384 8.89754 151.811 8.49753 151.174 8.22512C150.538 7.95272 149.852 7.81372 149.16 7.81672L146.459 7.81534ZM149.158 4.4151C154.192 4.4151 158 8.31939 158 13.2318C158 18.1441 154.192 22.0484 149.158 22.0484H143.22C143.163 22.0477 143.107 22.0358 143.055 22.0133C143.002 21.9908 142.955 21.9582 142.915 21.9174C142.876 21.8766 142.844 21.8283 142.823 21.7754C142.803 21.7225 142.792 21.666 142.793 21.6091V4.87645C142.793 4.63269 142.985 4.43576 143.22 4.43576L149.16 4.4151H149.158ZM169.232 8.7229L167.143 14.5153H171.317L169.232 8.7229ZM165.917 17.7888L164.55 21.6449C164.522 21.7356 164.465 21.8147 164.388 21.8695C164.311 21.9244 164.217 21.9519 164.123 21.9479H161.156C161.081 21.9549 161.005 21.9415 160.936 21.909C160.868 21.8766 160.809 21.8262 160.767 21.7633C160.723 21.6997 160.697 21.626 160.691 21.5493C160.684 21.4725 160.697 21.3954 160.729 21.3254L167.139 4.60791C167.169 4.51975 167.227 4.44378 167.304 4.39157C167.381 4.33935 167.473 4.31377 167.566 4.3187H170.885C170.978 4.31346 171.07 4.3389 171.148 4.39113C171.225 4.44337 171.283 4.51951 171.313 4.60791L177.722 21.3254C177.754 21.3956 177.767 21.4727 177.761 21.5494C177.754 21.6262 177.727 21.6998 177.684 21.7633C177.641 21.826 177.583 21.876 177.514 21.9083C177.445 21.9405 177.369 21.9537 177.294 21.9465H174.329C174.234 21.9506 174.141 21.923 174.064 21.8681C173.986 21.8133 173.929 21.7343 173.902 21.6435L172.535 17.7874H165.917V17.7888ZM181.161 9.09887C181.161 6.33075 183.494 3.93722 187.178 3.93722C189.162 3.89292 191.083 4.63502 192.521 6.0016C192.565 6.04305 192.6 6.09301 192.624 6.14842C192.648 6.20383 192.66 6.26353 192.66 6.32386C192.66 6.3842 192.648 6.4439 192.624 6.49931C192.6 6.55472 192.565 6.60467 192.521 6.64612L190.878 8.31939C190.839 8.36003 190.792 8.39236 190.74 8.41444C190.688 8.43652 190.632 8.44789 190.575 8.44789C190.519 8.44789 190.463 8.43652 190.411 8.41444C190.359 8.39236 190.312 8.36003 190.272 8.31939C189.499 7.59406 188.482 7.1831 187.422 7.16669C185.948 7.16669 184.859 8.04395 184.859 9.05617C184.859 12.3283 193.567 10.4402 193.567 16.7367C193.563 19.9276 191.212 22.3418 187.055 22.3418C185.901 22.3536 184.756 22.1331 183.689 21.6936C182.622 21.254 181.654 20.6042 180.843 19.783C180.799 19.7415 180.764 19.6916 180.74 19.6362C180.716 19.5807 180.704 19.521 180.704 19.4607C180.704 19.4004 180.716 19.3407 180.74 19.2853C180.764 19.2299 180.799 19.1799 180.843 19.1385L182.432 17.5079C182.472 17.4652 182.52 17.4312 182.573 17.408C182.626 17.3847 182.684 17.3727 182.742 17.3727C182.8 17.3727 182.858 17.3847 182.911 17.408C182.964 17.4312 183.012 17.4652 183.052 17.5079C184.052 18.4993 185.399 19.0624 186.808 19.0779C188.649 19.0779 189.862 18.0698 189.862 16.8069C189.862 13.5334 181.158 15.4228 181.158 9.12503L181.161 9.09887ZM209.357 4.77041V11.3863H201.987V4.77041C201.987 4.71362 201.977 4.65725 201.956 4.6045C201.935 4.55176 201.904 4.50368 201.864 4.46301C201.824 4.42234 201.777 4.38988 201.725 4.36749C201.673 4.34509 201.617 4.33319 201.56 4.33247H198.764C198.707 4.33319 198.651 4.34509 198.599 4.36749C198.547 4.38988 198.5 4.42234 198.46 4.46301C198.42 4.50368 198.389 4.55176 198.368 4.6045C198.347 4.65725 198.336 4.71362 198.337 4.77041V21.4852C198.337 21.7275 198.53 21.9245 198.764 21.9245H201.56C201.794 21.9245 201.987 21.7275 201.987 21.4852V14.7646H209.352V21.4852C209.352 21.7275 209.545 21.9245 209.779 21.9245H212.574C212.81 21.9245 213.001 21.7275 213.001 21.4852V4.77041C213.002 4.71362 212.992 4.65725 212.971 4.6045C212.949 4.55176 212.918 4.50368 212.879 4.46301C212.839 4.42234 212.792 4.38988 212.74 4.36749C212.687 4.34509 212.631 4.33319 212.574 4.33247H209.779C209.665 4.33536 209.557 4.38295 209.478 4.46492C209.399 4.5469 209.356 4.65666 209.357 4.77041ZM43.0651 6.56349C41.1261 2.96907 37.332 0.731165 33.2059 0.744936H1.9882C1.77738 0.745792 1.57147 0.808665 1.39613 0.925722C1.22079 1.04278 1.08377 1.20884 1.00214 1.40322C0.921712 1.59636 0.900764 1.80911 0.941983 2.01422C0.983202 2.21933 1.08471 2.40747 1.23351 2.55454L8.03399 9.30269C8.63443 9.90038 9.45248 10.235 10.3036 10.235H32.3108C33.8794 10.2185 35.1615 11.4607 35.1781 13.0073C35.1946 14.5538 33.9372 15.8208 32.3686 15.836H17.1963C16.9853 15.8361 16.7791 15.8983 16.6032 16.0149C16.4274 16.1315 16.2897 16.2972 16.2075 16.4915C16.1263 16.6849 16.1048 16.8981 16.1458 17.1038C16.1868 17.3094 16.2884 17.4981 16.4375 17.6456L23.2421 24.3993C23.8463 24.9966 24.662 25.3312 25.5117 25.3302H32.3741C41.3023 25.3302 48.0532 15.9104 43.0651 6.55936" fill="#EB1700"/>
</svg>
