<svg width="150" height="25" viewBox="0 0 150 25" fill="none" xmlns="http://www.w3.org/2000/svg">
<path d="M0.185059 24.4694V0.720459H10.0608C14.3175 0.720459 17.0767 3.855 17.0767 7.93763C17.0767 12.0822 14.3098 15.1509 10.0608 15.1509H3.96198V24.4694H0.185059ZM3.95811 3.93626V11.9932H9.89825C11.7867 11.9932 13.3037 10.0583 13.3037 7.94924C13.3037 5.8402 11.7867 3.93626 9.89825 3.93626H3.95811ZM36.1355 19.4387C37.3506 19.2026 38.5309 18.9666 39.7112 18.7615C39.9472 20.112 40.756 21.7296 43.4842 21.7296C44.0918 21.7296 47.0947 21.4935 47.0947 19.3381C47.0947 15.2554 36.6463 19.4696 36.6463 12.1557C36.6463 9.25336 39.5448 7.06306 43.1862 7.06306C46.8277 7.06306 49.9313 8.58002 50.4344 12.3918C49.2231 12.593 48.0428 12.8291 46.8625 13.0651C46.6265 10.9406 45.3146 10.1666 43.2868 10.1666C41.499 10.1666 40.2878 11.1109 40.2878 12.1557C40.2878 13.5372 41.5687 13.9087 43.5926 14.11C47.4353 14.5163 50.7052 15.356 50.7052 19.3381C50.7052 22.9099 47.5707 24.7983 43.4881 24.7983C39.1075 24.7983 36.6114 22.5074 36.1355 19.4387ZM51.6533 10.1512V7.38425H54.5866V2.47348H58.232V7.39586H61.7729V10.1512H58.232V19.8256C58.232 21.1762 58.6383 21.5787 59.8186 21.5787C60.3217 21.5787 61.4362 21.5129 61.4362 21.5129V24.4694C61.4362 24.4694 60.1321 24.6048 58.8396 24.6048C55.6354 24.6048 54.5828 22.8828 54.5828 19.6128V10.1512H51.6533ZM74.4503 14.9497C74.4503 12.3531 73.8776 10.1628 71.1455 10.1628C68.5489 10.1628 67.8407 12.3531 67.8407 14.9497V24.4694H64.1992V7.39586H67.5195L67.8562 9.24949C68.3631 8.30526 70.387 7.05919 72.3761 7.05919C75.2049 7.05919 76.5555 8.60711 77.1282 9.62099C78.0376 8.10403 80.2627 7.05919 82.2518 7.05919C86.8956 7.05919 88.3235 9.89188 88.3235 14.9497V24.4694H84.7014V14.9497C84.7014 12.3879 83.9932 10.1279 81.3966 10.1279C78.6645 10.1279 78.0918 12.3182 78.0918 14.9497V24.4694H74.4503V14.9497ZM94.9177 13.247C93.7567 13.0458 92.5261 12.7749 91.311 12.5736C91.698 8.79672 94.7938 7.04371 98.3579 7.04371C103.18 7.04371 105.676 9.40428 105.676 14.0558V19.992C105.676 21.0021 105.877 21.5748 106.585 21.5748C106.882 21.5718 107.176 21.5262 107.46 21.4394V24.4075C106.757 24.5979 106.032 24.6891 105.304 24.6784C104.594 24.7241 103.894 24.4992 103.343 24.049C102.792 23.5988 102.432 22.9567 102.336 22.252C101.681 23.0308 100.866 23.6595 99.9468 24.0955C99.0274 24.5316 98.0248 24.7647 97.0074 24.779C93.064 24.779 90.7034 22.5887 90.7034 19.3613C90.7034 16.6989 93.1646 14.2725 97.6691 14.2725H102.054V13.247C102.054 11.9313 101.512 10.1512 98.3773 10.1512C96.2876 10.1512 95.0067 11.196 94.937 13.247H94.9177ZM102.054 17.8327V16.9891H98.0212C95.0183 16.9891 94.4146 18.506 94.4146 19.3497C94.4146 20.5106 95.1886 21.7102 97.4137 21.7102C100.382 21.7102 102.034 19.6863 102.034 17.8404L102.054 17.8327ZM25.9502 24.8254C24.195 24.8254 22.4792 24.3049 21.0199 23.3297C19.5606 22.3545 18.4233 20.9684 17.7518 19.3468C17.0803 17.7252 16.9048 15.9408 17.2475 14.2194C17.5902 12.498 18.4357 10.917 19.6771 9.67614C20.9184 8.43532 22.4999 7.59051 24.2214 7.24857C25.9429 6.90662 27.7272 7.0829 29.3486 7.7551C30.9699 8.4273 32.3555 9.56524 33.33 11.025C34.3046 12.4847 34.8244 14.2007 34.8236 15.9559C34.8216 18.3082 33.8859 20.5637 32.2221 22.2267C30.5584 23.8897 28.3026 24.8244 25.9502 24.8254ZM25.9502 10.4607C24.8633 10.4607 23.8009 10.783 22.8972 11.3868C21.9936 11.9906 21.2893 12.8489 20.8733 13.853C20.4574 14.8571 20.3486 15.9619 20.5606 17.0279C20.7727 18.0938 21.296 19.073 22.0645 19.8415C22.833 20.61 23.8122 21.1333 24.8781 21.3454C25.9441 21.5574 27.0489 21.4486 28.053 21.0327C29.0571 20.6168 29.9154 19.9124 30.5192 19.0088C31.123 18.1051 31.4453 17.0427 31.4453 15.9559C31.4442 14.4988 30.865 13.1017 29.8347 12.0714C28.8043 11.041 27.4072 10.4618 25.9502 10.4607ZM130.121 18.5254C131.232 18.8272 132.346 19.1639 133.457 19.5045C132.683 21.9656 130.361 24.7983 125.717 24.7983C121.074 24.7983 117.695 21.1878 117.695 15.9288C117.695 10.6697 120.791 7.05919 125.551 7.05919C130.311 7.05919 133.236 10.2285 133.236 15.3909C133.246 15.9309 133.224 16.471 133.171 17.0084H121.457C121.523 19.5045 123.241 21.7296 125.714 21.7296C127.501 21.7296 129.254 20.886 130.133 18.5254H130.121ZM129.359 14.2686C129.258 11.7416 128.047 10.1202 125.551 10.1202C123.121 10.1202 121.739 12.1441 121.639 14.2686H129.359ZM134.808 19.4387C136.023 19.2026 137.199 18.9666 138.379 18.7653C138.615 20.112 139.428 21.7335 142.156 21.7335C142.764 21.7335 145.767 21.4974 145.767 19.3381C145.767 15.2593 135.318 19.4735 135.318 12.1557C135.318 9.25723 138.217 7.06306 141.858 7.06306C145.5 7.06306 148.599 8.58388 149.106 12.3918C147.891 12.593 146.711 12.8291 145.535 13.0651C145.299 10.9406 143.987 10.1666 141.959 10.1666C140.171 10.1666 138.96 11.1109 138.96 12.1557C138.96 13.5372 140.241 13.9087 142.261 14.11C146.107 14.5163 149.377 15.3599 149.377 19.3381C149.377 22.9137 146.239 24.7983 142.16 24.7983C137.78 24.7983 135.284 22.5074 134.808 19.4387ZM106.922 10.1512V7.38425H109.855V2.47348H113.497V7.39586H117.053V10.1512H113.512V19.8256C113.512 21.1762 113.918 21.5787 115.099 21.5787C115.602 21.5787 116.716 21.5129 116.716 21.5129V24.4694C116.716 24.4694 115.412 24.6048 114.12 24.6048C110.915 24.6048 109.863 22.8828 109.863 19.6128V10.1512H106.922Z" fill="#0D0D0D"/>
</svg>
