<svg width="80" height="35" viewBox="0 0 80 35" fill="none" xmlns="http://www.w3.org/2000/svg">
<path d="M65.1644 8.40367C65.9367 8.3852 66.6892 8.65127 67.2718 9.15081C67.8709 9.6938 68.2846 10.404 68.46 11.1859C68.6862 12.1787 68.7314 13.2031 68.5935 14.2114C68.4176 15.5497 68.0787 16.8624 67.584 18.1209C67.1298 19.3591 66.5467 20.5476 65.8441 21.6677C65.5456 22.1362 65.2261 22.5913 64.8864 23.0317C64.8783 23.0431 64.8743 23.0569 64.8749 23.0708C64.8755 23.0847 64.8807 23.098 64.8897 23.1088C64.9085 23.1305 64.9405 23.137 64.9669 23.124C65.1564 23.0206 65.3415 22.9098 65.5219 22.7917C65.9489 22.518 66.3604 22.2226 66.7543 21.9055C67.8234 21.0395 68.598 19.8724 68.9742 18.5607C69.2015 17.7691 69.4486 16.9861 69.7255 16.215C70.1447 15.0174 70.6203 13.8396 71.151 12.6856C71.514 11.8734 71.9218 11.0813 72.3724 10.3128C72.6924 9.76113 73.2385 9.36909 73.8707 9.23769C74.4269 9.11286 75.0055 9.12143 75.5577 9.26267C76.0615 9.3873 76.5146 9.66049 76.8563 10.0457C77.2093 10.4116 77.2976 10.9535 77.078 11.4096C77.014 11.5758 76.864 11.9439 76.5871 12.526C76.309 13.107 76.0178 13.8107 75.6879 14.5937C75.3569 15.3756 75.017 16.2248 74.6783 17.1121C74.3715 17.9025 74.1136 18.7105 73.906 19.5316C73.7462 20.1053 73.6773 20.6998 73.7019 21.2941C73.7372 21.7307 73.9071 21.7307 73.9954 21.7307C74.2646 21.697 74.5139 21.5743 74.7026 21.3832C75.0788 21.0726 75.4352 20.7381 75.7684 20.383C76.1435 19.9877 76.4966 19.5729 76.8232 19.1385C77.1222 18.7399 77.3803 18.3892 77.5889 18.0905C77.6771 17.964 77.7957 17.8608 77.934 17.79C78.0723 17.7191 78.2262 17.6829 78.3821 17.6844C78.7142 17.6844 79.0254 17.8462 79.2141 18.1155L79.1644 18.1318C79.2468 18.2569 79.2896 18.4033 79.2872 18.5524C79.2849 18.7015 79.2375 18.8465 79.1512 18.9691C78.9283 19.3133 78.5399 19.8921 77.9629 20.737C77.3425 21.634 76.6633 22.4901 75.9295 23.2999C75.1601 24.1593 74.2998 24.9354 73.3632 25.6152C72.5395 26.2601 71.5266 26.6265 70.4747 26.6599C69.6119 26.6599 68.9709 26.3656 68.5626 25.7792C68.165 25.1385 67.9716 24.3952 68.0077 23.6453V23.5062C68.0087 23.4825 68.0026 23.459 67.9903 23.4385C67.9779 23.4181 67.9598 23.4016 67.9382 23.3911C67.9163 23.3807 67.8918 23.3768 67.8677 23.3799C67.8436 23.3829 67.8209 23.3929 67.8025 23.4085C67.6182 23.5519 67.4328 23.6952 67.2475 23.8364C66.0667 24.6976 64.7744 25.3995 63.4046 25.9236C62.0696 26.434 60.6497 26.6881 59.2187 26.6762C59.019 26.6762 58.8137 26.6632 58.6085 26.6632C57.5868 26.6599 56.8289 26.3406 56.3544 25.7162C56.2711 25.6071 56.1945 25.4933 56.125 25.3752C56.1131 25.3534 56.0949 25.3357 56.0726 25.3243C56.0504 25.3129 56.0251 25.3084 56.0002 25.3113C55.9753 25.3142 55.9519 25.3245 55.933 25.3407C55.9141 25.357 55.9007 25.3785 55.8944 25.4024C55.7366 25.9095 55.5943 26.4036 55.4585 26.8728C55.1651 27.8849 54.9069 28.7689 54.6984 29.5497C54.4909 30.3294 54.2934 31.0852 54.1434 31.6934C53.9933 32.3015 53.8885 32.7989 53.8334 33.1638V33.1779C53.7605 33.6905 53.3645 34.101 52.8481 34.2009C52.6782 34.2378 52.5061 34.2552 52.3317 34.2552C51.9928 34.2509 51.657 34.19 51.3388 34.0749C50.804 33.8806 50.327 33.5581 49.9508 33.1366C49.5292 32.6695 49.3043 32.0617 49.3219 31.4371C49.3738 30.9191 49.4764 30.4076 49.6264 29.9091C49.8261 29.0914 50.0953 28.0847 50.4318 26.9086C50.6481 26.1115 50.925 25.2438 51.2031 24.3164C51.2117 24.2918 51.212 24.2651 51.2041 24.2403C51.1961 24.2154 51.1803 24.1938 51.1589 24.1785C51.1376 24.1626 51.1117 24.154 51.085 24.154C51.0583 24.154 51.0324 24.1626 51.0111 24.1785C49.9703 24.8761 48.8534 25.4567 47.6813 25.9095C46.3474 26.4199 44.9263 26.6751 43.4953 26.6632C43.2956 26.6632 43.0904 26.649 42.8852 26.649C41.8635 26.6469 41.1066 26.3276 40.6322 25.7021C40.5481 25.593 40.4708 25.4792 40.4005 25.3611C40.3885 25.3397 40.3703 25.3223 40.3482 25.3112C40.3261 25.3 40.3011 25.2956 40.2764 25.2985C40.2518 25.3014 40.2286 25.3115 40.2098 25.3275C40.191 25.3435 40.1775 25.3646 40.171 25.3882C40.0132 25.8986 39.8709 26.3895 39.7352 26.8597C39.4417 27.874 39.1946 28.7526 38.975 29.5356C38.7565 30.3185 38.5557 31.0711 38.4068 31.6825C38.2823 32.1682 38.1785 32.6587 38.0957 33.1529V33.167C38.0228 33.6796 37.6267 34.0901 37.1104 34.19C36.9419 34.2266 36.7699 34.2448 36.5974 34.2443C36.2584 34.2401 35.9226 34.1791 35.6044 34.064C35.0696 33.8698 34.5926 33.5473 34.2164 33.1258C33.7948 32.6586 33.5699 32.0509 33.5875 31.4262C33.6394 30.9082 33.742 30.3967 33.892 29.8983C34.3383 28.142 34.8268 26.3963 35.3572 24.6628C35.3654 24.6368 35.3646 24.6089 35.355 24.5834C35.3455 24.5579 35.3276 24.5362 35.3043 24.5216C35.2806 24.5076 35.2528 24.5017 35.2254 24.5046C35.1979 24.5076 35.1721 24.5192 35.152 24.5379C34.7405 24.9115 34.3091 25.2644 33.8589 25.5935C33.0483 26.2418 32.0451 26.6124 31.0013 26.649C30.1407 26.649 29.4975 26.3547 29.0893 25.7683C28.9183 25.5167 28.7881 25.2404 28.7031 24.9495C28.6845 24.8871 28.6496 24.8307 28.6017 24.7859C28.5539 24.741 28.4948 24.7095 28.4306 24.6943C28.3662 24.6788 28.2988 24.6804 28.2352 24.6989C28.1717 24.7174 28.1142 24.7522 28.0687 24.7996C27.7874 25.0896 27.4795 25.3535 27.1474 25.5848C26.7041 25.8941 26.2229 26.1474 25.7153 26.3385C25.1637 26.5426 24.5789 26.6458 23.9898 26.6414C23.208 26.6553 22.447 26.393 21.8449 25.9019C21.2215 25.3766 20.7681 24.6831 20.5408 23.907C20.2661 22.9228 20.1723 21.8981 20.2639 20.8815C20.3698 19.5555 20.6401 18.2458 21.0693 16.9828C22.0402 14.0453 23.2737 11.9005 24.8283 10.5104C26.3817 9.11823 27.9606 8.41127 29.5174 8.41127C30.0978 8.38977 30.6732 8.52497 31.1812 8.80222C31.5993 9.04113 31.9425 9.38973 32.172 9.80783C32.3231 10.088 32.4334 10.3877 32.4996 10.6983C32.503 10.7102 32.5098 10.7208 32.5192 10.7289C32.5286 10.737 32.5402 10.7423 32.5526 10.7439C32.565 10.7455 32.5776 10.7436 32.5889 10.7384C32.6002 10.7332 32.6098 10.7249 32.6166 10.7146C32.6938 10.5745 32.7688 10.4496 32.8406 10.3345C32.9968 10.0642 33.2089 9.82906 33.4631 9.64443C33.7174 9.45979 34.0082 9.32974 34.3168 9.26267C34.8728 9.13677 35.4513 9.14422 36.0038 9.28439C36.5168 9.40602 36.9791 9.68077 37.3278 10.0706C37.6808 10.4366 37.7691 10.9785 37.5484 11.4346C37.4855 11.5975 37.3189 11.9743 37.0585 12.5499C36.3727 14.0601 35.734 15.5906 35.1432 17.1392C34.8366 17.9296 34.579 18.7376 34.372 19.5587C34.2118 20.1324 34.1426 20.7269 34.1667 21.3213C34.2032 21.7578 34.372 21.7578 34.4613 21.7578C34.7305 21.7242 34.9799 21.6015 35.1686 21.4103C35.3627 21.242 35.5658 21.0628 35.771 20.8652C36.5484 20.1349 37.1306 19.2269 37.4657 18.2219C37.9401 16.8438 38.4421 15.4831 38.9551 14.1713C39.4456 12.9125 39.977 11.6695 40.5483 10.4442C40.7811 9.91534 41.2335 9.51027 41.7918 9.33108C42.3037 9.16276 42.851 9.12584 43.3805 9.22466C43.8844 9.31279 44.3572 9.52582 44.7542 9.84366C44.914 9.96918 45.0519 10.1196 45.1624 10.2889C45.19 10.3182 45.2209 10.3237 45.2595 10.2889C45.7218 9.86538 46.2216 9.48529 46.7523 9.15081C47.5464 8.65186 48.4714 8.39218 49.4135 8.40367C50.186 8.38553 50.9375 8.65198 51.5208 9.15081C52.1177 9.6938 52.5303 10.4051 52.7036 11.1859C52.9297 12.1785 52.975 13.2037 52.836 14.2114C52.6606 15.5498 52.3216 16.8625 51.8264 18.1209C51.3726 19.359 50.7899 20.5476 50.0876 21.6677C49.7765 22.1564 49.4587 22.6125 49.1332 23.0317C49.1246 23.0429 49.1203 23.0568 49.1209 23.0708C49.1215 23.0849 49.127 23.0983 49.1365 23.1088C49.1553 23.1305 49.1873 23.137 49.2138 23.124C49.398 23.023 49.5834 22.9122 49.7676 22.7917C50.0755 22.5929 50.3645 22.3877 50.6371 22.1748C51.7116 21.3632 52.5147 20.2535 52.943 18.9886C53.4861 17.3639 54.0707 15.7529 54.6962 14.1571C55.1855 12.898 55.7164 11.655 56.2882 10.4301C56.521 9.90122 56.9734 9.49615 57.5317 9.31697C58.0436 9.14864 58.5909 9.11172 59.1205 9.21054C59.6242 9.29913 60.0968 9.51211 60.4941 9.82954C60.6596 9.95986 60.803 10.1141 60.9167 10.2889C60.9442 10.3182 60.9751 10.3237 61.0137 10.2889C61.4754 9.86593 61.975 9.48501 62.5065 9.15081C63.2996 8.65224 64.2234 8.39256 65.1644 8.40367ZM13.4917 1.41871C14.6798 1.41735 15.8639 1.55256 17.0201 1.8216C18.1203 2.06784 19.175 2.48033 20.1469 3.0444C21.0383 3.56003 21.8082 4.25633 22.4054 5.08711C22.9957 5.92983 23.3024 6.93326 23.2847 7.95407C23.2951 9.07981 23.0306 10.1915 22.5135 11.1957C21.9893 12.1966 21.2867 13.0966 20.4393 13.8531C19.5256 14.6655 18.5042 15.3523 17.403 15.8947C16.4342 16.3747 15.428 16.7776 14.3931 17.0969C14.3648 17.1016 14.3396 17.1172 14.3229 17.1402C14.3061 17.1631 14.2993 17.1917 14.3037 17.2196C14.3258 17.7354 14.3655 18.2404 14.4141 18.7312C14.4737 19.2927 14.5542 19.8411 14.648 20.3678C14.8032 21.2289 15.0279 22.0765 15.3199 22.9024C15.6602 23.8661 16.1272 24.7817 16.709 25.6261C16.9142 25.9117 17.1371 26.1853 17.3787 26.4438C17.6016 26.6827 17.8421 26.9075 18.0969 27.1149C18.3353 27.3082 18.589 27.4842 18.8538 27.6416C19.3561 27.9394 19.9048 28.1537 20.4779 28.2758C20.7592 28.3388 21.0461 28.379 21.3352 28.3964C21.6331 28.4181 21.931 28.4181 22.2289 28.3964C22.5422 28.3703 22.8533 28.3204 23.1601 28.2498C23.4889 28.1737 23.811 28.076 24.1255 27.9576C24.4675 27.8306 24.7996 27.6829 25.1218 27.5156C25.2497 27.4505 25.3744 27.3821 25.5024 27.3115C25.7009 27.1959 25.9363 27.1577 26.162 27.2045C26.3877 27.2513 26.5874 27.3796 26.7218 27.5642C26.8561 27.7488 26.9153 27.9762 26.8877 28.2016C26.8601 28.427 26.7477 28.634 26.5726 28.7819C26.0019 29.2735 25.4045 29.7343 24.783 30.1622C24.3986 30.4265 24.0017 30.673 23.5937 30.9006C23.3918 31.0166 23.1861 31.126 22.9769 31.2286C22.5797 31.4273 22.1715 31.6054 21.7533 31.7607C21.3571 31.906 20.9521 32.0271 20.5408 32.1234C19.882 32.2841 19.2059 32.3657 18.5272 32.3667H18.1996C17.6421 32.3418 17.0893 32.2558 16.5512 32.1104C16.3748 32.0622 16.2007 32.0064 16.0293 31.9431C15.3468 31.6948 14.7048 31.3494 14.1239 30.918C13.5811 30.5147 13.0908 30.0471 12.6642 29.5258C12.4169 29.232 12.1874 28.9242 11.9768 28.6038C11.5277 27.9227 11.1475 27.2 10.8415 26.446C10.508 25.6208 10.238 24.7721 10.0339 23.907C9.92578 23.4509 9.83531 22.9785 9.75698 22.5039C9.68573 22.0721 9.62833 21.6382 9.58486 21.2029C9.58369 21.1729 9.57156 21.1442 9.55069 21.1223C9.52981 21.1004 9.50159 21.0866 9.47122 21.0835C9.44069 21.0809 9.41028 21.0895 9.3857 21.1075C9.36112 21.1255 9.34406 21.1517 9.33772 21.1812H9.3322C9.1656 21.7589 9.01003 22.3215 8.88867 22.8558C8.70331 23.5399 8.54553 24.1546 8.41424 24.6997C8.27522 25.246 8.17813 25.6717 8.1362 25.9877C8.04573 26.5285 7.60661 26.9466 7.05495 27.0194C6.50164 27.1152 5.93255 27.068 5.40329 26.8825C4.83382 26.6957 4.31685 26.3799 3.89395 25.9605C3.66383 25.7374 3.48257 25.4702 3.36132 25.1755C3.24007 24.8808 3.1814 24.5648 3.18893 24.2469C3.24079 23.3466 3.38422 22.455 3.61702 21.5819C3.89395 20.3711 4.30439 18.93 4.82625 17.3064C5.40062 15.5314 6.02237 13.7715 6.69086 12.0286C7.30872 10.391 8.00381 8.77072 8.75406 7.15806C9.0012 6.63028 9.51094 6.26756 10.0979 6.20023C11.2481 6.04228 12.4174 6.08012 13.5546 6.31209C13.6924 6.3441 13.8213 6.40565 13.9321 6.49234C14.043 6.57903 14.133 6.68873 14.1958 6.81362C14.2586 6.9385 14.2926 7.07549 14.2955 7.21481C14.2983 7.35413 14.2699 7.49234 14.2122 7.6196C13.5961 8.9723 13.0199 10.3423 12.4844 11.7278C12.0651 12.8192 11.6514 13.8943 11.2818 14.939C11.2737 14.9622 11.2726 14.9871 11.2787 15.0108C11.2847 15.0345 11.2977 15.056 11.316 15.0726C11.3535 15.1052 11.4086 15.1139 11.455 15.0922C11.9713 14.8532 12.4711 14.5796 12.95 14.2733C13.7495 13.7689 14.479 13.1644 15.1202 12.475C15.7489 11.7966 16.2674 11.0266 16.6571 10.1923C17.0477 9.35162 17.2484 8.43756 17.2452 7.51317C17.2452 6.2882 16.9009 5.38467 16.2213 4.8254C15.5417 4.26612 14.5619 3.96639 13.3273 3.96639C12.0864 3.95009 10.8637 4.26174 9.78677 4.86883C8.74344 5.45821 7.80989 6.21843 7.02627 7.11679C6.28946 7.95723 5.68678 8.90306 5.23889 9.92185C4.86351 10.7153 4.64984 11.5735 4.61 12.4478C4.62068 12.6799 4.55062 12.9086 4.4114 13.0961C4.27219 13.2837 4.07214 13.4189 3.8443 13.4795C3.38782 13.6144 2.89826 13.5922 2.45633 13.4165C1.93567 13.2061 1.48592 12.8552 1.15883 12.4044C0.73924 11.8167 0.53004 11.1085 0.564143 10.391C0.564143 9.66013 0.842179 8.79787 1.42473 7.7586C2.06834 6.6464 2.90391 5.65309 3.89395 4.82322C5.10342 3.81335 6.47078 3.00254 7.94312 2.42214C9.70666 1.72994 11.5923 1.38923 13.4906 1.41979L13.4917 1.41871ZM47.3944 11.6485L47.3679 11.6518C47.2177 11.6722 47.0769 11.7356 46.963 11.8342C46.5754 12.1289 46.2292 12.4729 45.9336 12.8572C45.4927 13.4152 45.0923 14.0031 44.7354 14.6165C44.2975 15.3598 43.9084 16.1299 43.5703 16.922C43.2294 17.7169 42.9337 18.5292 42.6844 19.3557C42.4703 20.0453 42.2972 20.7465 42.1658 21.4559C42.0643 21.9446 42.0367 22.4442 42.083 22.9405C42.1382 23.3575 42.2684 23.4454 42.307 23.4617C42.3251 23.4661 42.3441 23.4661 42.3622 23.4617C42.5126 23.4422 42.6538 23.3795 42.7682 23.2815C43.1577 22.985 43.503 22.6364 43.7943 22.2454C44.2301 21.6807 44.624 21.0878 44.9748 20.4688C45.3764 19.7673 45.7758 18.9875 46.1642 18.1524C46.5062 17.3607 46.8041 16.5506 47.0579 15.7274C47.2697 15.0433 47.443 14.3472 47.5765 13.6424L47.5654 13.638C47.6669 13.1559 47.6945 12.6628 47.6482 12.172C47.5908 11.7582 47.4606 11.6681 47.4209 11.6507C47.4034 11.6475 47.3854 11.6475 47.3679 11.6507L47.3944 11.6485ZM63.1454 11.6464L63.1189 11.6485C62.969 11.6701 62.8285 11.7334 62.714 11.831C62.3289 12.1242 61.9858 12.4652 61.6934 12.8464C61.2521 13.4035 60.8505 13.9921 60.4941 14.6056C60.0572 15.3564 59.6691 16.1337 59.3323 16.9329C58.9883 17.7235 58.6892 18.5324 58.4364 19.3557C58.2213 20.0453 58.048 20.7457 57.9178 21.4559C57.8145 21.9438 57.7862 22.4443 57.834 22.9405C57.8892 23.3575 58.0193 23.4454 58.0591 23.4617C58.0772 23.4661 58.0961 23.4661 58.1142 23.4617C58.2643 23.4421 58.4051 23.3794 58.5191 23.2815C58.9086 22.9839 59.254 22.6353 59.5452 22.2454C59.981 21.6807 60.3727 21.0878 60.7225 20.4688C61.1274 19.7673 61.5268 18.9875 61.9152 18.1524C62.2539 17.3597 62.5485 16.5474 62.7978 15.722C63.0096 15.0379 63.184 14.3417 63.3164 13.637C63.4157 13.1537 63.4444 12.6596 63.3969 12.1698C63.3417 11.755 63.2104 11.6648 63.1718 11.6485C63.1543 11.6453 63.1364 11.6453 63.1189 11.6485L63.1454 11.6464ZM30.2158 11.5725L30.1915 11.5747C30.0492 11.5947 29.9165 11.6568 29.8109 11.7528C29.4401 12.0482 29.1158 12.3968 28.8488 12.7866C28.4449 13.3492 28.0875 13.9421 27.7774 14.56C27.3927 15.3156 27.0444 16.0885 26.7337 16.8764C26.4165 17.6638 26.1526 18.471 25.9437 19.2927C25.767 19.9739 25.6427 20.6673 25.5719 21.3669C25.5167 21.8588 25.5223 22.3573 25.5907 22.8482C25.6635 23.2684 25.7992 23.3607 25.8378 23.377C25.8553 23.3803 25.8733 23.3803 25.8908 23.377C26.0327 23.3576 26.1652 23.2958 26.2703 23.2C26.6399 22.9068 26.9654 22.5647 27.2357 22.1825C27.6417 21.6286 27.9992 21.0422 28.307 20.4308C28.6711 19.7216 29.0198 18.9321 29.3508 18.1144C29.6663 17.326 29.9311 16.518 30.1407 15.697C30.3173 15.0107 30.4464 14.3135 30.5291 13.6098C30.6033 13.1159 30.5995 12.6137 30.5181 12.1209C30.4243 11.6866 30.2831 11.5942 30.2411 11.5747C30.2248 11.5715 30.2079 11.5715 30.1915 11.5747L30.2158 11.5725ZM76.4811 0.745406C76.9429 0.745121 77.4002 0.83436 77.8269 1.00803C78.2536 1.18169 78.6414 1.43639 78.9682 1.75757C79.2949 2.07875 79.5541 2.46013 79.7311 2.87992C79.9081 3.29972 79.9993 3.74972 79.9996 4.20422C79.9995 4.65881 79.9083 5.10893 79.7314 5.52885C79.5545 5.94877 79.2953 6.33028 78.9686 6.65157C78.6418 6.97287 78.254 7.22766 77.8272 7.4014C77.4004 7.57513 76.943 7.66441 76.4811 7.66412C76.0144 7.67233 75.5506 7.58894 75.1169 7.41881C74.6832 7.24869 74.2883 6.99523 73.9552 6.67325C73.6221 6.35126 73.3576 5.96719 73.1769 5.54346C72.9963 5.11974 72.9032 4.66483 72.9032 4.20532C72.9031 3.7458 72.996 3.29087 73.1765 2.86708C73.357 2.4433 73.6215 2.05915 73.9544 1.73706C74.2874 1.41497 74.6823 1.16139 75.1159 0.991134C75.5495 0.820873 76.0132 0.737338 76.48 0.745406H76.4811Z" fill="#FF441F"/>
</svg>
