<svg width="176" height="30" viewBox="0 0 176 30" fill="none" xmlns="http://www.w3.org/2000/svg">
<path d="M131.391 18.3072C131.391 14.8272 128.607 12.0929 125.094 12.0929C121.631 12.0929 118.797 14.8272 118.797 18.3072C118.797 21.7872 121.631 24.5214 125.094 24.5214C128.607 24.5214 131.391 21.7872 131.391 18.3072ZM136.528 8.13234V28.4986H131.292V26.6591C129.469 28.1671 127.165 29.0123 124.663 29.0123C118.465 29.0123 113.627 24.2563 113.627 18.3072C113.627 12.3746 118.482 7.60206 124.663 7.60206C127.165 7.60206 129.469 8.4472 131.292 9.95519V8.13234H136.528ZM153.928 23.8751H149.984C148.791 23.8751 148.012 23.3614 148.012 22.2677V12.7392H153.912V8.13234H148.012V2.33236H142.726V8.13234H138.749V12.7558H142.726V23.5769C142.726 26.3111 144.698 28.482 148.244 28.482H153.912V23.8751H153.928ZM165.859 29.0123C171.908 29.0123 175.322 26.1786 175.322 22.2677C175.322 19.4837 173.3 17.4123 169.074 16.5175L164.6 15.6226C162.015 15.1586 161.186 14.678 161.186 13.7335C161.186 12.5072 162.429 11.7615 164.733 11.7615C167.235 11.7615 169.058 12.4243 169.588 14.678H174.825C174.543 10.4358 171.411 7.60206 165.081 7.60206C159.612 7.60206 155.768 9.82262 155.768 14.1146C155.768 17.0809 157.889 19.0197 162.446 19.9643L167.434 21.0912C169.406 21.4723 169.936 21.986 169.936 22.7814C169.936 24.0574 168.445 24.8529 166.042 24.8529C163.026 24.8529 161.286 24.19 160.623 21.9363H155.337C156.116 26.1786 159.33 29.0123 165.859 29.0123ZM92.498 0.907227H112.235V5.61349H97.834V12.358H111.853V16.9317H97.834V23.7591H112.235V28.4654H92.498V0.907227Z" fill="#06C167"/>
<path d="M83.1186 11.9272V8.23177H81.7101C79.4729 8.23177 77.8158 9.2592 76.8215 10.8666V8.38091H72.8113V28.4488H76.8547V17.0477C76.8547 13.9323 78.7769 11.9272 81.4284 11.9272H83.1186ZM54.0193 16.5672C54.7485 13.5015 57.2673 11.4466 60.2667 11.4466C63.2661 11.4466 65.8016 13.4849 66.481 16.5672H54.0193ZM60.3496 7.99977C54.3839 7.99977 49.8433 12.7558 49.8433 18.4232C49.8433 24.4054 54.5662 28.8963 60.7142 28.8963C64.4427 28.8963 67.4918 27.2888 69.5301 24.6043L66.597 22.4831C65.0724 24.4883 63.0673 25.4329 60.6976 25.4329C57.2507 25.4329 54.4833 22.9969 53.9199 19.7323H70.5575V18.4397C70.5741 12.4409 66.249 7.99977 60.3496 7.99977ZM37.216 25.4329C33.2885 25.4329 30.1565 22.3174 30.1565 18.4729C30.1565 14.5786 33.3217 11.5129 37.216 11.5129C41.0605 11.5129 44.2256 14.5786 44.2256 18.4729C44.2422 22.3174 41.0771 25.4329 37.216 25.4329ZM26.196 28.4654H30.2063V25.9466C32.0457 27.8026 34.664 28.9294 37.4977 28.9294C43.5131 28.9294 48.2359 24.2397 48.2359 18.4563C48.2359 12.6398 43.5131 7.95006 37.4977 7.95006C34.6474 7.95006 32.0788 9.09348 30.2394 10.9329V0.907227H26.196V28.4654ZM11.9612 25.234C15.8555 25.234 18.8549 22.2843 18.8549 17.9095V0.907227H23.064V28.4488H18.888V25.8969C16.9989 27.8191 14.3972 28.9294 11.464 28.9294C5.44864 28.9294 0.841797 24.6374 0.841797 18.1414V0.907227H5.0675V17.9095C5.0675 22.3671 8.03377 25.234 11.9612 25.234Z" fill="#0D0D0D"/>
</svg>
