<svg width="215" height="26" viewBox="0 0 215 26" fill="none" xmlns="http://www.w3.org/2000/svg">
<path d="M62.4133 7.5911V18.5539H65.1467C65.8443 18.5435 66.5327 18.3933 67.1712 18.1123C67.8097 17.8312 68.3854 17.4249 68.8641 16.9175C69.8468 15.8771 70.3844 14.4943 70.3625 13.0634C70.3834 12.3527 70.2636 11.6449 70.01 10.9806C69.7565 10.3163 69.3742 9.70871 68.8851 9.19265C68.4043 8.68449 67.8246 8.28012 67.1817 8.00444C66.5388 7.72877 65.8462 7.58763 65.1467 7.5897H62.4147L62.4133 7.5911ZM65.1467 4.15382C70.2413 4.15382 74.0953 8.10125 74.0953 13.0634C74.0953 18.0256 70.2413 21.9953 65.1467 21.9953H59.1182C59.0608 21.9946 59.004 21.9825 58.9512 21.9599C58.8983 21.9372 58.8505 21.9043 58.8104 21.8632C58.7702 21.822 58.7386 21.7734 58.7173 21.72C58.696 21.6666 58.6854 21.6095 58.6861 21.5521V4.61519C58.6861 4.36987 58.8799 4.17055 59.1182 4.17055L65.1467 4.15382ZM87.2269 18.9358C89.5408 18.9427 91.6302 17.5196 92.5208 15.3298C92.9572 14.2599 93.0738 13.0865 92.8565 11.9516C92.6393 10.8168 92.0976 9.76932 91.297 8.93618C90.5105 8.11671 89.4938 7.55516 88.3814 7.3257C87.2689 7.09624 86.1131 7.20968 85.0664 7.65103C82.9283 8.55426 81.5316 10.6911 81.5274 13.0634C81.5274 16.2972 84.0754 18.9204 87.2283 18.9358H87.2269ZM87.2283 3.7496C92.5905 3.7496 96.6899 7.9758 96.6899 13.0634C96.6899 18.151 92.5905 22.3772 87.2269 22.3772C81.8647 22.3772 77.8002 18.1719 77.8002 13.0634C77.8002 7.9549 81.8996 3.7496 87.2269 3.7496H87.2283ZM109.716 18.9358C112.87 18.9274 115.422 16.3014 115.419 13.0676C115.415 9.83104 112.857 7.21057 109.704 7.20918C106.549 7.20918 103.99 9.82825 103.985 13.0634C103.985 14.6218 104.589 16.116 105.664 17.2171C106.19 17.7598 106.819 18.1915 107.515 18.4867C108.211 18.7819 108.958 18.9346 109.714 18.9358H109.716ZM109.714 3.7496C115.06 3.7496 119.159 7.9549 119.159 13.0634C119.159 18.1719 115.043 22.3772 109.714 22.3772C104.387 22.3772 100.253 18.1719 100.253 13.0634C100.253 7.9549 104.352 3.7496 109.714 3.7496ZM131.662 7.5911H127.808V12.3093H131.662C131.967 12.3228 132.271 12.2738 132.555 12.1652C132.84 12.0566 133.1 11.8907 133.318 11.6779C133.764 11.2458 134.018 10.6465 134.023 10.0164C134.034 9.69679 133.981 9.37819 133.866 9.07974C133.751 8.78129 133.577 8.50915 133.354 8.27967C133.135 8.05382 132.872 7.87626 132.581 7.75839C132.289 7.64052 131.976 7.58496 131.662 7.59528V7.5911ZM124.079 4.61519C124.079 4.36987 124.275 4.17055 124.513 4.17055H131.769C135.229 4.17055 137.732 6.77011 137.732 10.0345C137.759 12.2424 136.553 14.2705 134.628 15.2588L137.975 21.3263C138.021 21.396 138.047 21.4772 138.05 21.5608C138.053 21.6445 138.033 21.7273 137.992 21.8002C137.951 21.8719 137.891 21.9305 137.819 21.969C137.746 22.0076 137.664 22.0244 137.582 22.0176H134.645C134.563 22.0188 134.483 21.9969 134.414 21.9545C134.344 21.912 134.288 21.8508 134.252 21.7779L131.026 15.7731H127.794V21.5381C127.795 21.5957 127.784 21.6529 127.763 21.7065C127.742 21.76 127.71 21.8088 127.67 21.8501C127.63 21.8915 127.582 21.9244 127.529 21.9472C127.476 21.9699 127.42 21.982 127.362 21.9828H124.532C124.475 21.982 124.418 21.9699 124.365 21.9472C124.312 21.9244 124.264 21.8915 124.224 21.8501C124.184 21.8088 124.152 21.76 124.131 21.7065C124.11 21.6529 124.099 21.5957 124.1 21.5381L124.081 4.61659L124.079 4.61519ZM147.45 7.67473V18.6389H150.182C150.88 18.6294 151.568 18.4802 152.207 18.2001C152.846 17.92 153.422 17.5147 153.901 17.0081C154.884 15.969 155.423 14.5871 155.402 13.1568C155.425 12.4452 155.306 11.7363 155.053 11.0707C154.8 10.4052 154.418 9.7963 153.929 9.27907C153.447 8.77005 152.867 8.36518 152.222 8.08948C151.578 7.81377 150.884 7.67309 150.184 7.67612L147.45 7.67473ZM150.182 4.23327C155.277 4.23327 159.131 8.18488 159.131 13.1568C159.131 18.1287 155.277 22.0803 150.182 22.0803H144.172C144.114 22.0796 144.057 22.0675 144.005 22.0448C143.952 22.022 143.904 21.989 143.864 21.9477C143.823 21.9064 143.792 21.8576 143.771 21.804C143.749 21.7505 143.739 21.6933 143.74 21.6357V4.70022C143.74 4.4535 143.934 4.25418 144.172 4.25418L150.184 4.23327H150.182ZM170.499 8.59329L168.385 14.4559H172.61L170.499 8.59329ZM167.144 17.7691L165.76 21.6719C165.732 21.7638 165.675 21.8437 165.597 21.8993C165.518 21.9548 165.424 21.9827 165.328 21.9786H162.326C162.249 21.9857 162.172 21.9721 162.103 21.9393C162.033 21.9064 161.974 21.8555 161.931 21.7918C161.887 21.7274 161.861 21.6528 161.854 21.5751C161.848 21.4975 161.861 21.4194 161.894 21.3486L168.381 4.42841C168.411 4.33919 168.469 4.26229 168.547 4.20945C168.625 4.15661 168.719 4.13071 168.813 4.1357H172.172C172.266 4.1304 172.36 4.15615 172.438 4.20901C172.516 4.26188 172.575 4.33894 172.605 4.42841L179.092 21.3486C179.125 21.4196 179.138 21.4977 179.131 21.5753C179.124 21.653 179.098 21.7275 179.053 21.7918C179.01 21.8552 178.951 21.9059 178.882 21.9385C178.812 21.9711 178.735 21.9845 178.659 21.9772H175.658C175.562 21.9813 175.468 21.9534 175.389 21.8979C175.311 21.8423 175.254 21.7624 175.226 21.6705L173.842 17.7677H167.144V17.7691ZM182.573 8.97381C182.573 6.17214 184.934 3.7496 188.663 3.7496C190.671 3.70476 192.615 4.45586 194.071 5.83901C194.115 5.88095 194.151 5.93152 194.175 5.9876C194.199 6.04368 194.211 6.10411 194.211 6.16517C194.211 6.22624 194.199 6.28666 194.175 6.34274C194.151 6.39882 194.115 6.44939 194.071 6.49134L192.408 8.18488C192.368 8.22603 192.321 8.25874 192.268 8.28109C192.215 8.30343 192.159 8.31495 192.101 8.31495C192.044 8.31495 191.988 8.30343 191.935 8.28109C191.882 8.25874 191.835 8.22603 191.795 8.18488C191.012 7.45076 189.983 7.03482 188.909 7.01822C187.418 7.01822 186.316 7.90611 186.316 8.9306C186.316 12.2424 195.129 10.3314 195.129 16.7042C195.125 19.9338 192.745 22.3772 188.539 22.3772C187.371 22.3892 186.212 22.1661 185.132 21.7212C184.052 21.2763 183.072 20.6186 182.251 19.7874C182.207 19.7455 182.171 19.6949 182.147 19.6388C182.123 19.5828 182.11 19.5223 182.11 19.4613C182.11 19.4002 182.123 19.3398 182.147 19.2837C182.171 19.2276 182.207 19.177 182.251 19.1351L183.859 17.4848C183.9 17.4416 183.948 17.4072 184.002 17.3837C184.056 17.3601 184.114 17.348 184.173 17.348C184.232 17.348 184.29 17.3601 184.344 17.3837C184.398 17.4072 184.447 17.4416 184.487 17.4848C185.499 18.4882 186.862 19.0581 188.288 19.0738C190.151 19.0738 191.379 18.0535 191.379 16.7753C191.379 13.4621 182.57 15.3744 182.57 9.00029L182.573 8.97381ZM211.111 4.59289V11.289H203.651V4.59289C203.652 4.53541 203.641 4.47835 203.62 4.42497C203.599 4.37159 203.567 4.32292 203.527 4.28176C203.487 4.2406 203.439 4.20775 203.386 4.18508C203.333 4.16241 203.276 4.15037 203.219 4.14964H200.389C200.332 4.15037 200.275 4.16241 200.222 4.18508C200.169 4.20775 200.122 4.2406 200.081 4.28176C200.041 4.32292 200.01 4.37159 199.988 4.42497C199.967 4.47835 199.957 4.53541 199.957 4.59289V21.5102C199.957 21.7556 200.152 21.9549 200.389 21.9549H203.219C203.456 21.9549 203.651 21.7556 203.651 21.5102V14.7082H211.105V21.5102C211.105 21.7556 211.301 21.9549 211.538 21.9549H214.367C214.605 21.9549 214.799 21.7556 214.799 21.5102V4.59289C214.8 4.53541 214.789 4.47835 214.768 4.42497C214.747 4.37159 214.715 4.32292 214.675 4.28176C214.635 4.2406 214.587 4.20775 214.534 4.18508C214.481 4.16241 214.425 4.15037 214.367 4.14964H211.538C211.422 4.15256 211.313 4.20073 211.233 4.2837C211.153 4.36667 211.109 4.47776 211.111 4.59289ZM42.803 6.4077C40.8405 2.76971 37.0004 0.50468 32.8243 0.518619H1.22818C1.0148 0.519485 0.806399 0.58312 0.628933 0.701596C0.451467 0.820072 0.312788 0.98815 0.230173 1.18489C0.148767 1.38036 0.127565 1.59569 0.169283 1.80329C0.211002 2.01089 0.313741 2.20131 0.464343 2.35016L7.34725 9.1801C7.95498 9.78504 8.78294 10.1237 9.64435 10.1237H31.9183C33.5059 10.107 34.8036 11.3643 34.8204 12.9296C34.8371 14.4949 33.5645 15.7773 31.9769 15.7926H16.6206C16.4071 15.7927 16.1983 15.8557 16.0203 15.9737C15.8424 16.0916 15.7031 16.2594 15.6198 16.4561C15.5377 16.6518 15.5159 16.8676 15.5574 17.0758C15.5989 17.2839 15.7017 17.4749 15.8526 17.6241L22.7397 24.4597C23.3513 25.0643 24.1768 25.4029 25.0368 25.4019H31.9824C41.0189 25.4019 47.8516 15.8679 42.803 6.40352" fill="#EB1700"/>
</svg>
