<svg width="136" height="29" viewBox="0 0 136 29" fill="none" xmlns="http://www.w3.org/2000/svg">
<path d="M94.6306 1.04437H89.9656C89.9045 1.04412 89.8439 1.05597 89.7873 1.07925C89.7308 1.10253 89.6794 1.13678 89.6362 1.18001C89.593 1.22324 89.5587 1.27461 89.5355 1.33114C89.5122 1.38768 89.5003 1.44826 89.5006 1.5094V11.7005H84.7672V1.5094C84.7675 1.44826 84.7556 1.38768 84.7323 1.33114C84.709 1.27461 84.6748 1.22324 84.6316 1.18001C84.5883 1.13678 84.537 1.10253 84.4804 1.07925C84.4239 1.05597 84.3633 1.04412 84.3022 1.04437H79.6538C79.5927 1.0442 79.5322 1.05612 79.4757 1.07944C79.4192 1.10276 79.368 1.13701 79.3248 1.18024C79.2816 1.22346 79.2474 1.2748 79.2242 1.33129C79.201 1.38779 79.1891 1.44832 79.1894 1.5094V27.7614C79.1894 28.0201 79.3957 28.2264 79.6538 28.2264H84.3194C84.3805 28.2266 84.441 28.2147 84.4975 28.1914C84.5539 28.168 84.6052 28.1338 84.6484 28.0906C84.6916 28.0473 84.7257 27.996 84.749 27.9395C84.7722 27.883 84.7841 27.8225 84.7838 27.7614V17.2087H89.5178V27.7614C89.5178 28.0201 89.7248 28.2264 89.9828 28.2264H94.6479C94.709 28.2267 94.7696 28.2148 94.8261 28.1915C94.8827 28.1683 94.934 28.134 94.9773 28.0908C95.0205 28.0476 95.0547 27.9962 95.078 27.9397C95.1013 27.8831 95.1132 27.8225 95.1129 27.7614V1.5094C95.1132 1.44826 95.1013 1.38768 95.078 1.33114C95.0547 1.27461 95.0205 1.22324 94.9773 1.18001C94.934 1.13678 94.8827 1.10253 94.8261 1.07925C94.7696 1.05597 94.709 1.04412 94.6479 1.04437H94.6306ZM55.0198 1.04437H50.2513C50.0105 1.04437 49.8042 1.21684 49.7863 1.45766V20.1867C49.8208 20.9616 49.5972 21.7198 49.1322 22.3215L49.1494 22.3043C48.7739 22.7178 48.2502 22.9662 47.6924 22.9952C47.1346 23.0243 46.5879 22.8318 46.1714 22.4595C46.1113 22.4168 46.0589 22.3644 46.0162 22.3043C45.5757 21.7023 45.3568 20.9667 45.3966 20.2219V1.45766C45.3963 1.40056 45.3843 1.34412 45.3613 1.29186C45.3382 1.2396 45.3047 1.19263 45.2628 1.15388C45.2209 1.11512 45.1714 1.08539 45.1175 1.06656C45.0636 1.04772 45.0064 1.04017 44.9494 1.04437H40.163C40.1064 1.03931 40.0493 1.04558 39.9951 1.06283C39.9409 1.08007 39.8907 1.10795 39.8474 1.14482C39.8041 1.18169 39.7686 1.22682 39.743 1.27758C39.7173 1.32833 39.702 1.38369 39.698 1.44042V20.2391V20.1874C39.5434 22.4423 40.2665 24.6627 41.7121 26.3842L41.6948 26.3669C42.4585 27.1346 43.3727 27.7358 44.38 28.1329C45.3874 28.53 46.466 28.7143 47.548 28.6742H47.617C48.699 28.7143 49.7776 28.53 50.7849 28.1329C51.7923 27.7358 52.7065 27.1346 53.4701 26.3669L53.4529 26.3842C54.9012 24.6573 55.6232 22.4358 55.467 20.1874V1.45766C55.4577 1.3452 55.4065 1.24032 55.3236 1.16378C55.2407 1.08724 55.132 1.04463 55.0192 1.04437H55.0198ZM8.90173 0.597224H8.86723C7.7853 0.556962 6.70674 0.741053 5.69942 1.13791C4.6921 1.53477 3.77781 2.13582 3.01408 2.90322L3.06582 2.83487C1.58573 4.54268 0.826535 6.75844 0.948262 9.01508V20.2557V20.2046C0.793677 22.4595 1.51678 24.6799 2.96234 26.4014L2.94509 26.3842C3.70871 27.1518 4.62295 27.7531 5.63028 28.1502C6.63761 28.5473 7.71622 28.7316 8.79824 28.6915H8.88448C9.9665 28.7316 11.0451 28.5473 12.0524 28.1502C13.0598 27.7531 13.974 27.1518 14.7376 26.3842C16.186 24.6573 16.908 22.4358 16.7517 20.1874V14.0755C16.7455 13.9512 16.6922 13.8339 16.6026 13.7475C16.513 13.6611 16.3939 13.6121 16.2694 13.6105H9.38337C9.25715 13.6117 9.13596 13.6601 9.04363 13.7461C8.9513 13.8322 8.89453 13.9497 8.88448 14.0755V18.6543C8.90173 18.9296 9.10805 19.1366 9.38337 19.1366H11.2774V20.1867C11.3163 20.9743 11.0855 21.7517 10.6232 22.3905L10.6405 22.3726C10.2272 22.8894 9.59033 23.182 8.93622 23.1302H8.90173C8.24761 23.1813 7.61075 22.9239 7.19746 22.4071C6.71572 21.7833 6.47163 21.0085 6.50885 20.2212V9.08343V9.10068C6.47561 8.29266 6.73205 7.49935 7.23195 6.86367C7.64524 6.34689 8.28211 6.05433 8.93622 6.10607H8.97071C9.62483 6.05497 10.2611 6.31304 10.675 6.82917L10.7095 6.86367C11.1441 7.51843 11.3442 8.30104 11.2774 9.08407V10.117C11.2946 10.3584 11.5009 10.5303 11.7417 10.5303H16.4074C16.6482 10.5303 16.8546 10.3578 16.8718 10.117V9.03297V9.06682C16.9925 6.81193 16.2349 4.60813 14.7376 2.9045H14.7549C13.9889 2.13991 13.0741 1.5406 12.0673 1.14364C11.0604 0.746666 9.98279 0.560478 8.90109 0.596585L8.90173 0.597224ZM72.9919 14.1969L73.0264 14.1617C73.7289 13.4868 74.2876 12.6769 74.6692 11.7807C75.0508 10.8844 75.2472 9.92021 75.2468 8.94609V9.01508C75.2819 7.00601 74.5704 5.05536 73.25 3.54073V3.55797C72.5278 2.75153 71.6407 2.10973 70.6488 1.67605C69.6569 1.24238 68.5834 1.02695 67.501 1.04437H60.063C60.0018 1.04412 59.9413 1.05597 59.8847 1.07925C59.8282 1.10253 59.7768 1.13678 59.7336 1.18001C59.6904 1.22324 59.6561 1.27461 59.6328 1.33114C59.6096 1.38768 59.5977 1.44826 59.598 1.5094V27.7614C59.598 28.0201 59.8049 28.2264 60.063 28.2264H67.8798C70.2381 28.2609 72.493 27.2453 74.0082 25.4375L73.991 25.4548C75.2107 23.8402 75.8204 21.8464 75.7125 19.8258V19.8948C75.7125 17.6738 74.7141 15.5907 72.9926 14.1969H72.9919ZM65.1592 6.56983H67.5176H67.5003C67.7897 6.54994 68.0799 6.59362 68.3506 6.69779C68.6213 6.80196 68.8659 6.9641 69.0672 7.17284L69.1011 7.20733C69.5119 7.76217 69.7077 8.44705 69.6524 9.13517V9.10068C69.7214 9.82378 69.4971 10.5641 69.0672 11.1665V11.1493C68.8767 11.3702 68.6377 11.5441 68.3689 11.6576C68.1001 11.771 67.8088 11.8209 67.5176 11.8034H65.1592V6.57047V6.56983ZM69.5316 22.0635L69.5489 22.0462C69.3379 22.2969 69.0699 22.4934 68.7674 22.6192C68.4649 22.745 68.1366 22.7965 67.8101 22.7693H65.1592V17.0886H67.8446H67.8274C68.1539 17.0615 68.4821 17.113 68.7847 17.2388C69.0872 17.3646 69.3552 17.5611 69.5661 17.8117L69.5489 17.7945C70.009 18.3816 70.2413 19.1153 70.203 19.8603V19.8776C70.2375 20.6518 69.9794 21.4094 69.5144 22.029L69.5316 22.0635ZM32.9851 16.5201L33.0023 16.5035C33.4839 16.1758 33.9145 15.7804 34.3105 15.3499L34.2933 15.3844C35.7183 13.734 36.4683 11.6069 36.3936 9.42773V9.37663C36.4307 7.22451 35.6492 5.13859 34.207 3.54073L34.2933 3.64357C33.5848 2.84321 32.7198 2.19658 31.7516 1.7436C30.7835 1.29061 29.7328 1.0409 28.6643 1.00988H20.8316C20.7705 1.00962 20.7099 1.02148 20.6533 1.04476C20.5968 1.06804 20.5454 1.10228 20.5022 1.14552C20.459 1.18875 20.4247 1.24011 20.4015 1.29665C20.3782 1.35318 20.3663 1.41377 20.3666 1.47491V27.7614C20.3666 28.0201 20.5729 28.2264 20.8316 28.2264H25.4966C25.5578 28.2267 25.6183 28.2148 25.6749 28.1915C25.7314 28.1683 25.7828 28.134 25.826 28.0908C25.8692 28.0476 25.9035 27.9962 25.9268 27.9397C25.9501 27.8831 25.9619 27.8225 25.9617 27.7614V18.0359H27.6832L30.6267 27.9517C30.6778 28.1408 30.8675 28.2788 31.0738 28.2788H36.032C36.1055 28.2782 36.1778 28.2608 36.2435 28.2279C36.3091 28.195 36.3664 28.1475 36.4108 28.0891C36.4447 28.0256 36.4624 27.9547 36.4624 27.8828C36.4624 27.8108 36.4447 27.7399 36.4108 27.6764L32.9851 16.5208V16.5201ZM30.1105 11.6833C29.8738 11.9365 29.585 12.1353 29.2639 12.266C28.9429 12.3967 28.5973 12.4561 28.251 12.4402H25.9617V6.56983H28.2338C28.5801 6.55416 28.9256 6.61385 29.2465 6.74476C29.5674 6.87567 29.8561 7.07469 30.0927 7.32806V7.31081C30.5775 7.8937 30.829 8.63567 30.7985 9.39324V9.42773C30.8502 10.2543 30.6094 11.0464 30.0927 11.6826H30.1099L30.1105 11.6833ZM132.538 14.1962L132.572 14.1617C133.274 13.4869 133.833 12.677 134.215 11.7807C134.596 10.8844 134.793 9.92026 134.793 8.94609V9.04894C134.864 6.99263 134.15 4.98623 132.796 3.43725L132.83 3.48835C132.108 2.68194 131.221 2.04021 130.229 1.60664C129.237 1.17307 128.163 0.957789 127.081 0.975383H119.61C119.548 0.975129 119.488 0.986984 119.431 1.01026C119.375 1.03355 119.323 1.06779 119.28 1.11102C119.237 1.15426 119.203 1.20562 119.179 1.26216C119.156 1.31869 119.144 1.37928 119.144 1.44042V27.7614C119.144 28.0201 119.351 28.2264 119.61 28.2264H127.39C129.749 28.2609 132.004 27.2453 133.519 25.4375L133.502 25.4548C134.721 23.8402 135.331 21.8464 135.223 19.8258V19.8603C135.223 17.6565 134.225 15.5562 132.503 14.179L132.538 14.1962ZM124.705 6.57047H127.063H127.046C127.335 6.5506 127.625 6.59422 127.896 6.69827C128.167 6.80233 128.411 6.9643 128.613 7.17284L128.647 7.20733C129.058 7.76226 129.253 8.44713 129.198 9.13517V9.10068C129.267 9.82378 129.043 10.5641 128.613 11.1665V11.1493C128.422 11.3701 128.183 11.544 127.914 11.6574C127.646 11.7709 127.355 11.8208 127.063 11.8034H124.705V6.57047ZM129.078 22.0635L129.095 22.0462C128.884 22.2969 128.616 22.4934 128.313 22.6192C128.011 22.745 127.683 22.7965 127.356 22.7693H124.705V17.0886H127.391H127.373C127.7 17.0615 128.028 17.113 128.331 17.2388C128.633 17.3646 128.901 17.5611 129.112 17.8117L129.095 17.7945C129.555 18.3816 129.787 19.1153 129.749 19.8603V19.8776C129.783 20.6518 129.525 21.4094 129.06 22.029L129.078 22.0635ZM114.566 1.04437H109.762C109.705 1.0394 109.648 1.04574 109.594 1.06302C109.54 1.08031 109.49 1.1082 109.447 1.14507C109.404 1.18193 109.368 1.22703 109.343 1.27774C109.317 1.32845 109.302 1.38375 109.298 1.44042V20.1874C109.332 20.9443 109.125 21.6847 108.678 22.287C108.303 22.7006 107.779 22.9489 107.221 22.978C106.663 23.0071 106.117 22.8145 105.7 22.4423C105.64 22.3996 105.588 22.3471 105.545 22.287C105.104 21.6851 104.886 20.9494 104.925 20.2046V1.45766C104.908 1.21684 104.702 1.04437 104.46 1.04437H99.6744C99.4336 1.04437 99.2273 1.21684 99.21 1.45766V20.2391C99.0548 22.4423 99.7786 24.6627 101.224 26.3842L101.275 26.4359C104.633 29.4484 109.745 29.4139 113.051 26.3331L112.982 26.3842C114.43 24.6573 115.152 22.4358 114.996 20.1874V1.45766C114.978 1.23409 114.789 1.04437 114.566 1.04437Z" fill="#F2333D"/>
</svg>
