<svg width="152" height="26" viewBox="0 0 152 26" fill="none" xmlns="http://www.w3.org/2000/svg">
<path d="M0.580078 24.7771V0.740234H10.5755C14.8839 0.740234 17.6765 3.91277 17.6765 8.04489C17.6765 12.2397 14.876 15.3456 10.5755 15.3456H4.40279V24.7771H0.580078ZM4.39887 3.99502V12.1496H10.411C12.3224 12.1496 13.8577 10.1912 13.8577 8.05664C13.8577 5.92204 12.3224 3.99502 10.411 3.99502H4.39887ZM36.9663 19.6853C38.1961 19.4464 39.3907 19.2075 40.5853 18.9999C40.8242 20.3668 41.6428 22.004 44.4041 22.004C45.019 22.004 48.0584 21.7651 48.0584 19.5835C48.0584 15.4514 37.4833 19.7167 37.4833 12.3141C37.4833 9.37657 40.4169 7.15972 44.1025 7.15972C47.7881 7.15972 50.9293 8.69506 51.4385 12.553C50.2126 12.7567 49.018 12.9956 47.8234 13.2345C47.5845 11.0843 46.2567 10.3009 44.2043 10.3009C42.3948 10.3009 41.1689 11.2566 41.1689 12.3141C41.1689 13.7124 42.4653 14.0884 44.5138 14.292C48.403 14.7033 51.7127 15.5532 51.7127 19.5835C51.7127 23.1986 48.5401 25.11 44.408 25.11C39.9743 25.11 37.448 22.7913 36.9663 19.6853ZM52.6723 10.2852V7.4848H55.6411V2.5145H59.3307V7.49655H62.9144V10.2852H59.3307V20.077C59.3307 21.4439 59.7419 21.8513 60.9365 21.8513C61.4457 21.8513 62.5737 21.7847 62.5737 21.7847V24.7771C62.5737 24.7771 61.2538 24.9141 59.9456 24.9141C56.7025 24.9141 55.6372 23.1712 55.6372 19.8616V10.2852H52.6723ZM75.7456 15.142C75.7456 12.5138 75.1659 10.297 72.4007 10.297C69.7726 10.297 69.0558 12.5138 69.0558 15.142V24.7771H65.3702V7.49655H68.7307L69.0715 9.37265C69.5846 8.41698 71.633 7.1558 73.6462 7.1558C76.5093 7.1558 77.8762 8.72248 78.4559 9.74866C79.3763 8.21331 81.6285 7.1558 83.6416 7.1558C88.3417 7.1558 89.787 10.0228 89.787 15.142V24.7771H86.1209V15.142C86.1209 12.5491 85.4042 10.2617 82.776 10.2617C80.0108 10.2617 79.4312 12.4786 79.4312 15.142V24.7771H75.7456V15.142ZM96.461 13.4186C95.286 13.2149 94.0405 12.9408 92.8106 12.7371C93.2023 8.9144 96.3357 7.14013 99.943 7.14013C104.823 7.14013 107.349 9.52932 107.349 14.2372V20.2454C107.349 21.2677 107.553 21.8474 108.27 21.8474C108.57 21.8443 108.868 21.7981 109.155 21.7103V24.7144C108.444 24.9071 107.71 24.9994 106.973 24.9886C106.255 25.0348 105.546 24.8072 104.988 24.3516C104.431 23.8959 104.067 23.2461 103.969 22.5328C103.306 23.321 102.482 23.9574 101.551 24.3987C100.621 24.84 99.6059 25.0759 98.576 25.0904C94.5849 25.0904 92.1957 22.8735 92.1957 19.607C92.1957 16.9123 94.6867 14.4565 99.2458 14.4565H103.683V13.4186C103.683 12.0869 103.135 10.2852 99.9625 10.2852C97.8475 10.2852 96.5511 11.3428 96.4806 13.4186H96.461ZM103.683 18.0599V17.2061H99.6022C96.5629 17.2061 95.9518 18.7414 95.9518 19.5953C95.9518 20.7703 96.7352 21.9844 98.9873 21.9844C101.991 21.9844 103.664 19.936 103.664 18.0677L103.683 18.0599ZM26.6575 25.1374C24.8811 25.1374 23.1445 24.6106 21.6675 23.6235C20.1905 22.6365 19.0394 21.2337 18.3598 19.5924C17.6801 17.9511 17.5025 16.1451 17.8494 14.4028C18.1962 12.6606 19.0519 11.0603 20.3084 9.80447C21.5648 8.54861 23.1654 7.69356 24.9078 7.34747C26.6502 7.00138 28.4561 7.1798 30.0971 7.86015C31.7381 8.5405 33.1405 9.69223 34.1268 11.1697C35.1132 12.6471 35.6393 14.3839 35.6385 16.1603C35.6364 18.5412 34.6894 20.824 33.0055 22.5072C31.3216 24.1903 29.0384 25.1364 26.6575 25.1374ZM26.6575 10.5986C25.5575 10.5986 24.4822 10.9248 23.5676 11.5359C22.6529 12.147 21.9401 13.0157 21.5191 14.0319C21.0982 15.0482 20.9881 16.1665 21.2027 17.2453C21.4173 18.3242 21.947 19.3152 22.7248 20.093C23.5026 20.8709 24.4936 21.4006 25.5725 21.6152C26.6513 21.8298 27.7696 21.7196 28.7859 21.2987C29.8021 20.8777 30.6708 20.1649 31.2819 19.2502C31.893 18.3356 32.2192 17.2603 32.2192 16.1603C32.2182 14.6856 31.6319 13.2715 30.5891 12.2287C29.5463 11.1859 28.1322 10.5996 26.6575 10.5986ZM132.091 18.761C133.215 19.0665 134.343 19.4073 135.467 19.7519C134.684 22.2429 132.334 25.11 127.634 25.11C122.934 25.11 119.515 21.4557 119.515 16.1329C119.515 10.8101 122.648 7.1558 127.466 7.1558C132.283 7.1558 135.244 10.3636 135.244 15.5885C135.254 16.135 135.232 16.6817 135.178 17.2256H123.322C123.388 19.7519 125.127 22.004 127.63 22.004C129.44 22.004 131.214 21.1502 132.103 18.761H132.091ZM131.32 14.4526C131.218 11.895 129.992 10.2539 127.466 10.2539C125.006 10.2539 123.608 12.3023 123.506 14.4526H131.32ZM136.834 19.6853C138.064 19.4464 139.255 19.2075 140.45 19.0038C140.688 20.3668 141.511 22.0079 144.272 22.0079C144.887 22.0079 147.927 21.769 147.927 19.5835C147.927 15.4553 137.351 19.7206 137.351 12.3141C137.351 9.38048 140.285 7.15972 143.971 7.15972C147.656 7.15972 150.794 8.69898 151.307 12.553C150.077 12.7567 148.882 12.9956 147.692 13.2345C147.453 11.0843 146.125 10.3009 144.072 10.3009C142.263 10.3009 141.037 11.2566 141.037 12.3141C141.037 13.7124 142.333 14.0884 144.378 14.292C148.271 14.7033 151.581 15.5571 151.581 19.5835C151.581 23.2025 148.404 25.11 144.276 25.11C139.842 25.11 137.316 22.7913 136.834 19.6853ZM108.611 10.2852V7.4848H111.58V2.5145H115.265V7.49655H118.865V10.2852H115.281V20.077C115.281 21.4439 115.692 21.8513 116.887 21.8513C117.396 21.8513 118.524 21.7847 118.524 21.7847V24.7771C118.524 24.7771 117.204 24.9141 115.896 24.9141C112.653 24.9141 111.587 23.1712 111.587 19.8616V10.2852H108.611Z" fill="#0D0D0D"/>
</svg>
