<svg width="89" height="38" viewBox="0 0 89 38" fill="none" xmlns="http://www.w3.org/2000/svg">
<path d="M71.8995 9.15143C72.7573 9.13092 73.5931 9.42645 74.2402 9.98131C74.9056 10.5844 75.3652 11.3733 75.56 12.2418C75.8112 13.3445 75.8615 14.4823 75.7083 15.6023C75.5129 17.0888 75.1364 18.5468 74.587 19.9447C74.0825 21.32 73.4348 22.6402 72.6544 23.8843C72.3229 24.4046 71.968 24.9101 71.5906 25.3993C71.5817 25.412 71.5773 25.4273 71.5779 25.4427C71.5786 25.4582 71.5843 25.473 71.5943 25.4849C71.6152 25.5091 71.6507 25.5163 71.6801 25.5018C71.8906 25.387 72.0962 25.2639 72.2965 25.1327C72.7708 24.8288 73.2279 24.5007 73.6654 24.1484C74.853 23.1865 75.7133 21.8902 76.1311 20.4333C76.3836 19.5539 76.6581 18.6842 76.9657 17.8278C77.4312 16.4975 77.9596 15.1894 78.549 13.9076C78.9522 13.0054 79.4051 12.1256 79.9056 11.272C80.261 10.6592 80.8676 10.2238 81.5698 10.0778C82.1877 9.93916 82.8303 9.94868 83.4436 10.1056C84.0032 10.244 84.5065 10.5474 84.886 10.9752C85.2782 11.3817 85.3762 11.9836 85.1323 12.4903C85.0613 12.6748 84.8946 13.0837 84.587 13.7303C84.2782 14.3756 83.9547 15.1572 83.5882 16.0269C83.2206 16.8954 82.8431 17.8387 82.4669 18.8242C82.1261 19.7021 81.8396 20.5996 81.6091 21.5116C81.4315 22.1488 81.3551 22.8092 81.3823 23.4693C81.4216 23.9542 81.6103 23.9542 81.7083 23.9542C82.0073 23.9168 82.2843 23.7805 82.4939 23.5682C82.9118 23.2233 83.3076 22.8517 83.6777 22.4573C84.0944 22.0182 84.4865 21.5575 84.8493 21.075C85.1814 20.6323 85.4681 20.2427 85.6998 19.911C85.7978 19.7704 85.9295 19.6558 86.0831 19.5771C86.2368 19.4985 86.4077 19.4582 86.5809 19.4598C86.9498 19.4598 87.2953 19.6396 87.5049 19.9387L87.4498 19.9568C87.5413 20.0958 87.5888 20.2584 87.5862 20.424C87.5836 20.5896 87.531 20.7507 87.4351 20.8868C87.1875 21.2692 86.7561 21.9121 86.1152 22.8505C85.4261 23.8468 84.6717 24.7978 83.8566 25.6972C83.002 26.6518 82.0465 27.5139 81.0061 28.2689C80.0913 28.9853 78.9662 29.3922 77.7978 29.4293C76.8394 29.4293 76.1274 29.1024 75.674 28.451C75.2323 27.7394 75.0176 26.9138 75.0576 26.0808V25.9264C75.0587 25.9 75.052 25.8739 75.0383 25.8512C75.0245 25.8285 75.0044 25.8102 74.9804 25.7986C74.9561 25.787 74.9288 25.7826 74.9021 25.786C74.8753 25.7895 74.8501 25.8005 74.8296 25.8179C74.625 25.9771 74.4191 26.1363 74.2132 26.2931C72.9017 27.2497 71.4662 28.0293 69.9448 28.6115C68.462 29.1784 66.8848 29.4607 65.2953 29.4474C65.0735 29.4474 64.8455 29.4329 64.6176 29.4329C63.4828 29.4293 62.6409 29.0747 62.1139 28.3811C62.0214 28.2599 61.9362 28.1335 61.859 28.0023C61.8458 27.9782 61.8256 27.9585 61.8009 27.9458C61.7762 27.9331 61.7481 27.9281 61.7205 27.9313C61.6928 27.9346 61.6668 27.946 61.6458 27.964C61.6248 27.9821 61.6099 28.0059 61.6029 28.0325C61.4276 28.5958 61.2695 29.1446 61.1188 29.6657C60.7928 30.7899 60.5061 31.7718 60.2744 32.6391C60.044 33.5051 59.8247 34.3447 59.658 35.0202C59.4913 35.6956 59.3749 36.2481 59.3137 36.6534V36.6691C59.2328 37.2384 58.7928 37.6944 58.2193 37.8053C58.0306 37.8463 57.8394 37.8656 57.6458 37.8656C57.2692 37.8609 56.8963 37.7932 56.5428 37.6654C55.9489 37.4496 55.419 37.0914 55.0011 36.6232C54.5328 36.1043 54.283 35.4293 54.3026 34.7355C54.3602 34.1601 54.4742 33.592 54.6408 33.0383C54.8627 32.13 55.1617 31.0119 55.5355 29.7055C55.7757 28.8202 56.0833 27.8564 56.3921 26.8263C56.4016 26.7989 56.402 26.7693 56.3932 26.7417C56.3844 26.7141 56.3668 26.6901 56.3431 26.6731C56.3194 26.6555 56.2906 26.6459 56.2609 26.6459C56.2313 26.6459 56.2025 26.6555 56.1788 26.6731C55.0228 27.448 53.7822 28.0929 52.4803 28.5958C50.9987 29.1627 49.4202 29.4462 47.8308 29.4329C47.609 29.4329 47.381 29.4172 47.1531 29.4172C46.0183 29.4148 45.1776 29.0602 44.6506 28.3654C44.5573 28.2443 44.4713 28.1178 44.3933 27.9867C44.3799 27.9629 44.3597 27.9436 44.3352 27.9312C44.3106 27.9188 44.2829 27.9139 44.2555 27.9172C44.2281 27.9204 44.2023 27.9316 44.1815 27.9494C44.1606 27.9671 44.1456 27.9906 44.1384 28.0168C43.9631 28.5837 43.805 29.129 43.6543 29.6512C43.3283 30.7779 43.0538 31.7537 42.8099 32.6234C42.5673 33.4931 42.3442 34.329 42.1788 35.0081C42.0405 35.5475 41.9252 36.0924 41.8332 36.6413V36.657C41.7523 37.2263 41.3124 37.6823 40.7388 37.7933C40.5517 37.8339 40.3606 37.8541 40.169 37.8536C39.7925 37.8489 39.4195 37.7812 39.066 37.6534C38.4721 37.4376 37.9422 37.0794 37.5244 36.6112C37.0561 36.0923 36.8063 35.4172 36.8258 34.7234C36.8834 34.1481 36.9974 33.5799 37.1641 33.0263C37.6598 31.0755 38.2024 29.1365 38.7915 27.2111C38.8006 27.1822 38.7997 27.1512 38.7891 27.1228C38.7785 27.0945 38.7587 27.0704 38.7327 27.0542C38.7064 27.0387 38.6756 27.0321 38.6451 27.0353C38.6145 27.0386 38.5859 27.0516 38.5636 27.0723C38.1065 27.4873 37.6273 27.8793 37.1273 28.2448C36.227 28.9649 35.1127 29.3765 33.9533 29.4172C32.9974 29.4172 32.2829 29.0904 31.8295 28.439C31.6396 28.1595 31.4949 27.8527 31.4006 27.5295C31.38 27.4602 31.3411 27.3975 31.2879 27.3477C31.2348 27.2979 31.1692 27.2629 31.0979 27.246C31.0264 27.2288 30.9515 27.2306 30.8809 27.2512C30.8103 27.2717 30.7464 27.3103 30.6959 27.363C30.3834 27.6851 30.0415 27.9782 29.6726 28.2351C29.1802 28.5787 28.6458 28.86 28.0819 29.0723C27.4692 29.299 26.8197 29.4136 26.1653 29.4088C25.2969 29.4242 24.4517 29.1328 23.7829 28.5874C23.0905 28.0039 22.5869 27.2336 22.3344 26.3715C22.0292 25.2783 21.9251 24.1402 22.0268 23.011C22.1444 21.5382 22.4447 20.0835 22.9214 18.6806C23.9998 15.4178 25.3699 13.0355 27.0967 11.4915C28.8221 9.94513 30.5758 9.15987 32.305 9.15987C32.9497 9.136 33.5888 9.28617 34.153 9.59412C34.6175 9.85949 34.9986 10.2467 35.2535 10.7111C35.4214 11.0223 35.544 11.3552 35.6175 11.7002C35.6212 11.7134 35.6288 11.7252 35.6392 11.7342C35.6497 11.7432 35.6626 11.749 35.6763 11.7508C35.6901 11.7526 35.7041 11.7504 35.7166 11.7447C35.7292 11.7389 35.7399 11.7298 35.7474 11.7183C35.8332 11.5627 35.9165 11.424 35.9962 11.2961C36.1697 10.9958 36.4053 10.7347 36.6877 10.5296C36.9702 10.3245 37.2932 10.1801 37.6359 10.1056C38.2534 9.96572 38.8961 9.97399 39.5097 10.1297C40.0795 10.2648 40.593 10.57 40.9803 11.003C41.3724 11.4095 41.4705 12.0114 41.2254 12.518C41.1555 12.6989 40.9705 13.1175 40.6813 13.7568C39.9195 15.4342 39.21 17.1342 38.5538 18.8543C38.2132 19.7322 37.9272 20.6297 37.6972 21.5418C37.5193 22.1789 37.4424 22.8393 37.4692 23.4995C37.5097 23.9844 37.6972 23.9844 37.7964 23.9844C38.0955 23.947 38.3724 23.8107 38.582 23.5984C38.7977 23.4114 39.0232 23.2124 39.2511 22.9929C40.1147 22.1818 40.7613 21.1732 41.1335 20.0569C41.6604 18.5262 42.218 17.0148 42.7879 15.5577C43.3327 14.1595 43.9229 12.7789 44.5575 11.4179C44.8161 10.8305 45.3185 10.3806 45.9386 10.1815C46.5072 9.99458 47.1151 9.95357 47.7033 10.0633C48.263 10.1612 48.7881 10.3978 49.2291 10.7509C49.4066 10.8903 49.5598 11.0574 49.6825 11.2454C49.7131 11.278 49.7475 11.284 49.7903 11.2454C50.3038 10.775 50.859 10.3528 51.4484 9.98131C52.3305 9.42711 53.3579 9.13867 54.4043 9.15143C55.2624 9.13128 56.0971 9.42724 56.745 9.98131C57.408 10.5844 57.8663 11.3745 58.0587 12.2418C58.31 13.3443 58.3602 14.4829 58.2058 15.6023C58.011 17.089 57.6345 18.547 57.0845 19.9447C56.5804 21.3199 55.9331 22.6401 55.1531 23.8843C54.8075 24.4271 54.4546 24.9337 54.093 25.3993C54.0835 25.4118 54.0786 25.4271 54.0793 25.4428C54.08 25.4584 54.0861 25.4733 54.0967 25.4849C54.1176 25.5091 54.1531 25.5163 54.1825 25.5018C54.3872 25.3896 54.5931 25.2666 54.7977 25.1327C55.1396 24.912 55.4607 24.684 55.7634 24.4476C56.957 23.546 57.849 22.3134 58.3247 20.9085C58.9279 19.1039 59.5773 17.3145 60.272 15.542C60.8155 14.1435 61.4052 12.7628 62.0404 11.4022C62.299 10.8148 62.8014 10.3649 63.4215 10.1659C63.9901 9.9789 64.598 9.93789 65.1862 10.0477C65.7457 10.146 66.2707 10.3826 66.712 10.7352C66.8958 10.88 67.0551 11.0512 67.1813 11.2454C67.212 11.278 67.2463 11.284 67.2892 11.2454C67.8019 10.7756 68.3569 10.3525 68.9473 9.98131C69.8282 9.42753 70.8543 9.13909 71.8995 9.15143ZM14.5047 1.39298C15.8243 1.39147 17.1396 1.54166 18.4238 1.84049C19.6458 2.114 20.8174 2.57217 21.8969 3.1987C22.887 3.77142 23.7421 4.54483 24.4055 5.46762C25.0611 6.40365 25.4018 7.5182 25.3822 8.65205C25.3937 9.90245 25.0999 11.1373 24.5256 12.2526C23.9433 13.3643 23.1629 14.3641 22.2216 15.2043C21.2067 16.1067 20.0722 16.8696 18.8491 17.472C17.7731 18.0051 16.6554 18.4526 15.5059 18.8073C15.4745 18.8126 15.4465 18.8299 15.4279 18.8554C15.4093 18.8809 15.4017 18.9126 15.4067 18.9436C15.4312 19.5165 15.4753 20.0774 15.5292 20.6226C15.5954 21.2463 15.6849 21.8554 15.789 22.4404C15.9614 23.3969 16.211 24.3383 16.5353 25.2558C16.9134 26.3261 17.4321 27.3431 18.0782 28.281C18.3062 28.5982 18.5537 28.9022 18.8221 29.1893C19.0697 29.4546 19.3368 29.7043 19.6199 29.9347C19.8846 30.1494 20.1665 30.3448 20.4606 30.5197C21.0185 30.8505 21.628 31.0885 22.2645 31.2242C22.577 31.2941 22.8957 31.3388 23.2167 31.3581C23.5476 31.3822 23.8785 31.3822 24.2094 31.3581C24.5574 31.3291 24.903 31.2736 25.2437 31.1952C25.6089 31.1108 25.9667 31.0022 26.316 30.8707C26.6959 30.7296 27.0648 30.5656 27.4226 30.3798C27.5648 30.3074 27.7033 30.2314 27.8454 30.153C28.066 30.0247 28.3274 29.9823 28.5781 30.0342C28.8288 30.0862 29.0506 30.2287 29.1998 30.4337C29.349 30.6387 29.4148 30.8913 29.3841 31.1417C29.3535 31.3921 29.2286 31.622 29.0342 31.7863C28.4003 32.3323 27.7367 32.8441 27.0464 33.3194C26.6194 33.613 26.1785 33.8868 25.7253 34.1396C25.5011 34.2685 25.2727 34.39 25.0403 34.5039C24.5991 34.7246 24.1457 34.9225 23.6812 35.0949C23.2411 35.2563 22.7913 35.3909 22.3344 35.4978C21.6027 35.6763 20.8517 35.767 20.0979 35.768H19.7339C19.1147 35.7404 18.5006 35.6449 17.903 35.4833C17.7071 35.4298 17.5137 35.3678 17.3233 35.2976C16.5652 35.0217 15.8522 34.6381 15.2069 34.1589C14.604 33.711 14.0594 33.1916 13.5856 32.6125C13.3109 32.2862 13.0559 31.9443 12.8221 31.5884C12.3233 30.832 11.9009 30.0292 11.5611 29.1917C11.1906 28.2751 10.8907 27.3324 10.664 26.3715C10.5439 25.8649 10.4434 25.3402 10.3564 24.8131C10.2773 24.3335 10.2135 23.8516 10.1652 23.368C10.1639 23.3346 10.1505 23.3029 10.1273 23.2785C10.1041 23.2541 10.0727 23.2388 10.039 23.2353C10.0051 23.2325 9.97132 23.242 9.94402 23.262C9.91672 23.282 9.89777 23.3111 9.89072 23.3439H9.88459C9.69954 23.9856 9.52675 24.6104 9.39195 25.2039C9.18606 25.9638 9.01082 26.6465 8.86498 27.2521C8.71057 27.8588 8.60273 28.3316 8.55616 28.6826C8.45567 29.2833 7.96792 29.7477 7.35518 29.8286C6.74059 29.935 6.10848 29.8826 5.52061 29.6766C4.88808 29.469 4.31386 29.1183 3.84414 28.6525C3.58853 28.4046 3.3872 28.1079 3.25252 27.7805C3.11784 27.4532 3.05268 27.1021 3.06105 26.7491C3.11864 25.7491 3.27796 24.7588 3.53654 23.789C3.84414 22.444 4.30002 20.8434 4.87968 19.0401C5.51764 17.0684 6.20825 15.1137 6.95076 13.1778C7.63704 11.3588 8.4091 9.55914 9.24244 7.76789C9.51695 7.18166 10.0831 6.77878 10.7351 6.704C12.0127 6.52856 13.3114 6.57059 14.5746 6.82824C14.7276 6.8638 14.8708 6.93216 14.9939 7.02845C15.117 7.12474 15.217 7.24659 15.2868 7.38531C15.3565 7.52402 15.3943 7.67618 15.3975 7.83092C15.4006 7.98567 15.369 8.13919 15.305 8.28054C14.6206 9.78304 13.9807 11.3047 13.3858 12.8437C12.9201 14.0559 12.4606 15.2501 12.05 16.4105C12.0411 16.4362 12.0399 16.4639 12.0466 16.4902C12.0534 16.5166 12.0677 16.5404 12.088 16.5589C12.1297 16.5951 12.191 16.6047 12.2424 16.5806C12.816 16.3152 13.3711 16.0112 13.903 15.6711C14.791 15.1108 15.6013 14.4394 16.3135 13.6736C17.0119 12.92 17.5877 12.0648 18.0206 11.1381C18.4545 10.2044 18.6774 9.18908 18.6738 8.16232C18.6738 6.8017 18.2915 5.79812 17.5366 5.17692C16.7817 4.55571 15.6934 4.22279 14.3221 4.22279C12.9437 4.20469 11.5857 4.55084 10.3895 5.22516C9.23064 5.87981 8.19371 6.72422 7.32331 7.72205C6.50492 8.65556 5.8355 9.70613 5.33801 10.8377C4.92105 11.719 4.68373 12.6722 4.63948 13.6434C4.65133 13.9012 4.57352 14.1552 4.41889 14.3635C4.26426 14.5719 4.04206 14.7221 3.78899 14.7893C3.28196 14.9392 2.73819 14.9145 2.24732 14.7194C1.669 14.4856 1.16945 14.0959 0.806137 13.5952C0.340082 12.9424 0.107717 12.1557 0.145596 11.3588C0.145596 10.547 0.454421 9.58929 1.10148 8.43493C1.81636 7.19957 2.74446 6.09626 3.84414 5.1745C5.18754 4.0528 6.70631 3.1522 8.3417 2.50754C10.3005 1.73868 12.3949 1.36024 14.5035 1.39419L14.5047 1.39298ZM52.1617 12.7556L52.1323 12.7593C51.9654 12.7819 51.809 12.8524 51.6825 12.9619C51.252 13.2892 50.8675 13.6713 50.5391 14.0982C50.0493 14.7179 49.6046 15.3709 49.2082 16.0522C48.7218 16.8778 48.2896 17.7332 47.9141 18.6131C47.5354 19.496 47.207 20.3983 46.93 21.3162C46.6923 22.0822 46.5 22.8611 46.3541 23.6491C46.2413 24.1919 46.2107 24.7467 46.2621 25.298C46.3234 25.7612 46.468 25.8589 46.5109 25.877C46.5311 25.8818 46.5521 25.8818 46.5722 25.877C46.7392 25.8553 46.8961 25.7856 47.0232 25.6767C47.4558 25.3474 47.8394 24.9602 48.1629 24.526C48.647 23.8988 49.0845 23.2402 49.4742 22.5526C49.9202 21.7734 50.3639 20.9073 50.7952 19.9797C51.1752 19.1004 51.506 18.2005 51.7879 17.2862C52.0232 16.5263 52.2156 15.7531 52.3639 14.9703L52.3516 14.9654C52.4644 14.4299 52.495 13.8822 52.4435 13.337C52.3798 12.8775 52.2352 12.7773 52.1911 12.758C52.1716 12.7545 52.1517 12.7545 52.1323 12.758L52.1617 12.7556ZM69.6274 12.7556C69.4609 12.7796 69.3049 12.8499 69.1777 12.9583C68.75 13.284 68.3688 13.6627 68.0441 14.0861C67.5539 14.7049 67.1078 15.3587 66.712 16.0402C66.2267 16.8741 65.7956 17.7375 65.4215 18.6251C65.0395 19.5033 64.7072 20.4018 64.4264 21.3162C64.1874 22.0822 63.995 22.8602 63.8504 23.6491C63.7356 24.191 63.7042 24.7468 63.7573 25.298C63.8186 25.7612 63.9632 25.8589 64.0073 25.877C64.0274 25.8818 64.0484 25.8818 64.0686 25.877C64.2352 25.8552 64.3917 25.7855 64.5183 25.6767C64.9509 25.3462 65.3345 24.959 65.658 24.526C66.1421 23.8988 66.5772 23.2402 66.9656 22.5526C67.4154 21.7734 67.859 20.9073 68.2904 19.9797C68.6666 19.0992 68.9938 18.1969 69.2708 17.2802C69.5061 16.5203 69.6997 15.7471 69.8468 14.9642C69.9571 14.4275 69.9889 13.8786 69.9362 13.3346C69.875 12.8738 69.7291 12.7737 69.6862 12.7556C69.6668 12.752 69.6468 12.752 69.6274 12.7556ZM33.0538 12.6736C32.8957 12.6959 32.7483 12.7649 32.631 12.8714C32.2192 13.1995 31.8589 13.5867 31.5624 14.0198C31.1138 14.6446 30.7168 15.3032 30.3724 15.9895C29.9451 16.8287 29.5582 17.6873 29.2131 18.5624C28.8608 19.437 28.5677 20.3336 28.3356 21.2463C28.1393 22.0029 28.0013 22.7731 27.9226 23.5502C27.8614 24.0966 27.8675 24.6502 27.9435 25.1954C28.0244 25.6623 28.1751 25.7648 28.218 25.7829C28.2374 25.7865 28.2574 25.7865 28.2768 25.7829C28.4344 25.7613 28.5816 25.6927 28.6984 25.5863C29.1089 25.2606 29.4704 24.8806 29.7707 24.456C30.2217 23.8409 30.6187 23.1895 30.9606 22.5104C31.365 21.7227 31.7523 20.8458 32.12 19.9375C32.4704 19.0618 32.7646 18.1644 32.9974 17.2524C33.1935 16.4901 33.3369 15.7157 33.4288 14.9341C33.5111 14.3855 33.507 13.8277 33.4165 13.2803C33.3124 12.7979 33.1555 12.6953 33.1089 12.6736C33.0907 12.67 33.072 12.67 33.0538 12.6736ZM84.4694 0.645124C84.9823 0.644807 85.4902 0.743927 85.9642 0.936826C86.4382 1.12972 86.8689 1.41262 87.2318 1.76937C87.5947 2.12612 87.8826 2.54973 88.0792 3.01601C88.2758 3.48229 88.3771 3.98212 88.3775 4.48695C88.3773 4.99189 88.2761 5.49185 88.0796 5.95827C87.8831 6.42469 87.5951 6.84844 87.2322 7.20532C86.8693 7.56219 86.4385 7.8452 85.9645 8.03817C85.4904 8.23115 84.9824 8.33031 84.4694 8.32999C83.9509 8.33911 83.4358 8.24649 82.954 8.05752C82.4723 7.86855 82.0337 7.58703 81.6637 7.22939C81.2938 6.87175 80.9999 6.44515 80.7993 5.9745C80.5986 5.50385 80.4952 4.99857 80.4952 4.48817C80.4951 3.97777 80.5983 3.47246 80.7988 3.00175C80.9993 2.53103 81.293 2.10435 81.6629 1.74659C82.0327 1.38883 82.4713 1.10718 82.9529 0.918062C83.4346 0.728947 83.9497 0.636162 84.4681 0.645124H84.4694Z" fill="#FF441F"/>
</svg>
