<svg width="309" height="33" viewBox="0 0 309 33" fill="none" xmlns="http://www.w3.org/2000/svg">
<path d="M3.31879 19.768C5.88786 12.0386 12.0367 5.88971 19.7661 3.31932C20.1628 3.18533 20.5999 3.25428 20.9368 3.49883C21.1722 3.66793 21.3218 3.91639 21.4038 4.18826L21.4103 4.18566L29.2007 27.556C29.3568 28.023 29.2346 28.5394 28.8859 28.8867C28.6388 29.1351 28.3058 29.2678 27.9663 29.2678C27.8284 29.2678 27.6905 29.2457 27.5552 29.2015L4.323 21.4578L4.18381 21.4109L4.18642 21.4044C3.91585 21.3225 3.6674 21.1729 3.4983 20.9375C3.25245 20.5992 3.1861 20.1635 3.31879 19.768ZM12.7509 21.5254L15.9118 22.5791C16.8744 22.1966 17.5599 21.2588 17.5599 20.1648C17.5599 18.7209 16.3892 17.5632 14.9583 17.5632C13.5144 17.5632 12.3567 18.7209 12.3567 20.1648C12.358 20.6643 12.5063 21.1274 12.7509 21.5254ZM24.0652 23.4168C24.0652 22.3371 23.1937 21.4656 22.114 21.4656C21.0343 21.4656 20.1628 22.3371 20.1628 23.4168C20.1628 23.6327 20.2057 23.837 20.2708 24.0321L23.2275 25.0168C23.7335 24.6656 24.0652 24.0815 24.0652 23.4168ZM20.1628 17.5632C21.2568 17.5632 22.1946 16.8763 22.5771 15.9137L21.5234 12.7528C21.1267 12.5082 20.6623 12.3599 20.1628 12.3599C18.7189 12.3599 17.5612 13.5176 17.5612 14.9615C17.5612 16.3924 18.7189 17.5632 20.1628 17.5632ZM6.23647 19.3544L8.72229 20.183C10.8361 14.9824 14.9791 10.8393 20.1797 8.72547L19.3511 6.23833C13.387 8.6084 8.60652 13.3889 6.23647 19.3544Z" fill="#FFBC11"/>
<path d="M42.8227 32.1942H48.2947V25.3142H53.0307C57.8947 25.3142 61.3827 22.2102 61.3827 17.7622C61.3827 13.3142 57.8947 10.2102 53.0307 10.2102H42.8227V32.1942ZM48.2947 20.3222V15.2022H52.5507C54.4387 15.2022 55.7507 16.2262 55.7507 17.7622C55.7507 19.2982 54.4387 20.3222 52.5507 20.3222H48.2947ZM65.1977 32.1942H70.6697V10.2102H65.1977V32.1942ZM74.7354 32.1942H93.3594V27.2982H82.2554L93.1994 14.3062V10.2102H74.9594V15.1062H85.7114L74.7034 28.0982L74.7354 32.1942ZM96.3604 32.1942H114.984V27.2982H103.88L114.824 14.3062V10.2102H96.5844V15.1062H107.336L96.3284 28.0982L96.3604 32.1942ZM134.689 32.1942H140.833L132.129 10.2102H125.985L117.281 32.1942H123.425L124.769 28.8342H133.345L134.689 32.1942ZM126.401 24.7062L129.057 17.9542L131.713 24.7062H126.401ZM144.198 32.1942H149.67V25.3142H154.406C159.27 25.3142 162.758 22.2102 162.758 17.7622C162.758 13.3142 159.27 10.2102 154.406 10.2102H144.198V32.1942ZM149.67 20.3222V15.2022H153.926C155.814 15.2022 157.126 16.2262 157.126 17.7622C157.126 19.2982 155.814 20.3222 153.926 20.3222H149.67ZM172.045 27.2982V10.2102H166.573V32.1942H182.637V27.2982H172.045ZM201.939 32.1942H208.083L199.379 10.2102H193.235L184.531 32.1942H190.675L192.019 28.8342H200.595L201.939 32.1942ZM193.651 24.7062L196.307 17.9542L198.963 24.7062H193.651ZM211.448 32.1942H216.92V19.2022L226.52 32.1942H231.96V10.2102H226.52V23.2022L216.92 10.2102H211.448V32.1942ZM254.416 15.1062V10.2102H237.104V32.1942H254.416V27.2982H242.576V23.4262H253.328V18.5302H242.576V15.1062H254.416ZM263.944 32.1942H269.416V15.1062H276.104V10.2102H257.288V15.1062H263.944V32.1942ZM308.992 10.2102H302.656L297.92 16.7702L293.184 10.2102H286.752L294.688 21.2502L286.752 32.1942H293.088L297.824 25.6342L302.56 32.1942H308.992L301.056 21.1542L308.992 10.2102Z" fill="white"/>
</svg>
