<svg width="126" height="126" viewBox="0 0 126 126" fill="none" xmlns="http://www.w3.org/2000/svg">
<circle cx="63.4639" cy="62.7793" r="62.5" fill="#E93037"/>
<path d="M63.2259 42.9499L63.2261 42.95L63.7018 42.9499L63.702 42.9496L63.704 42.9472L63.7128 42.9358C63.721 42.9255 63.7337 42.9096 63.7508 42.8886C63.785 42.8466 63.837 42.7839 63.9067 42.7036C64.0459 42.543 64.2555 42.3117 64.5334 42.0334C65.0896 41.4766 65.9184 40.7326 67.0055 39.9883C69.1795 38.4998 72.3795 37.0144 76.4963 37.0144C85.129 37.0144 92.1248 44.0102 92.1248 52.6429C92.1248 55.7878 90.9693 59.1289 89.0985 62.4722C87.2291 65.8131 84.6568 69.1364 81.8506 72.2402C76.2382 78.4481 69.7157 83.7506 66.0869 86.5285C64.5259 87.7236 62.4019 87.7236 60.8409 86.5285C57.2121 83.7506 50.6896 78.4481 45.0771 72.2402C42.2709 69.1364 39.6987 65.8131 37.8292 62.4722C35.9585 59.1289 34.8029 55.7878 34.8029 52.6429C34.8029 44.0102 41.7988 37.0144 50.4315 37.0144C54.5482 37.0144 57.7483 38.4998 59.9223 39.9883C61.0093 40.7326 61.8382 41.4766 62.3943 42.0334C62.6723 42.3117 62.8818 42.543 63.0211 42.7036C63.0907 42.7839 63.1428 42.8466 63.177 42.8886C63.1941 42.9096 63.2068 42.9255 63.2149 42.9358L63.2238 42.9472L63.2257 42.9496L63.2259 42.9499ZM63.4639 43.2598L63.7017 42.95L63.4639 43.2598ZM62.069 80.9502C62.8885 81.5972 64.0392 81.5972 64.8588 80.9502C69.8153 77.0372 75.3212 72.0263 79.5913 66.9753C81.7262 64.4498 83.5578 61.9079 84.8569 59.4828C86.1541 57.0613 86.9326 54.7337 86.9326 52.6429C86.9326 46.8877 82.2515 42.2065 76.4963 42.2065C74.4051 42.2065 72.3882 42.9669 70.5964 44.0184C68.8033 45.0707 67.218 46.4248 65.9842 47.6378C64.6513 48.9483 62.293 48.939 60.9639 47.6222C58.5329 45.2136 54.6617 42.2065 50.4315 42.2065C44.6763 42.2065 39.9951 46.8877 39.9951 52.6429C39.9951 54.7337 40.7737 57.0613 42.0709 59.4828C43.37 61.9079 45.2015 64.4498 47.3365 66.9753C51.6066 72.0263 57.1125 77.0372 62.069 80.9502Z" fill="white" stroke="#E93037" stroke-width="0.6"/>
</svg>
