<svg width="126" height="125" viewBox="0 0 126 125" fill="none" xmlns="http://www.w3.org/2000/svg">
<circle cx="63" cy="62.5" r="62.5" fill="#E93037"/>
<path d="M69.9837 44.3448C67.1902 41.5513 65.7935 41.5513 65.7935 41.5513C63 41.5513 58.8098 49.9317 58.8098 49.9317C56.0163 49.9317 53.2228 35.9643 53.2228 35.9643C53.2815 35.7771 47.6358 41.6658 47.6358 49.9317C47.6358 54.122 50.5466 56.826 53.0887 60.2676C54.6978 62.4465 56.0163 63.8517 56.0163 65.2959C56.0163 68.0894 54.6195 69.4861 51.8261 69.4861C51.8261 69.4861 47.6358 69.4861 44.8423 61.1057C44.1663 60.9129 39.2554 64.7316 39.2554 71.0924C39.2554 74.3859 41.2276 78.051 44.401 80.6601M86.7446 38.7578C82.5544 38.7578 78.3642 44.3448 78.3642 49.9317M78.962 49.9317C71.1793 49.9317 70.5564 56.2953 69.8831 60.3598C68.587 68.1816 63.9973 79.6544 52.287 86.694C51.8288 86.9286 50.2198 88.1019 50.4489 88.8059C50.6807 89.0405 51.8288 89.0405 52.2898 89.0405C67.9026 89.0405 85.4484 78.6124 86.7446 57.7535C86.7446 52.538 82.8533 49.9317 78.962 49.9317Z" stroke="white" stroke-width="4" stroke-linecap="round" stroke-linejoin="round"/>
</svg>
