<svg width="126" height="125" viewBox="0 0 126 125" fill="none" xmlns="http://www.w3.org/2000/svg">
<circle cx="63" cy="62.5" r="62.5" fill="#E93037"/>
<path d="M62.9864 89.2497C58.3206 89.2497 54.5391 85.4681 54.5391 80.8023C54.5391 72.355 62.9864 63.9077 62.9864 63.9077C64.6026 72.5212 71.7969 75.0413 71.4337 80.8023C71.1408 85.4596 67.6521 89.2497 62.9864 89.2497Z" stroke="white" stroke-width="4" stroke-linejoin="round"/>
<path d="M74.2494 47.0131C72.8415 48.7082 71.6335 52.6446 71.4336 53.7878C65.802 44.1973 62.9863 35.75 62.9863 35.75C62.9863 35.75 43.2759 55.4604 43.2759 69.5392C43.2759 80.425 52.1005 89.2496 62.9863 89.2496C73.872 89.2496 82.6967 80.425 82.6967 69.5392C82.6967 69.1 82.7586 70.0151 82.6967 69.5392C82.6967 61.0919 77.0651 52.6446 74.2494 47.0131Z" stroke="white" stroke-width="4" stroke-linejoin="round"/>
</svg>
