<svg width="126" height="125" viewBox="0 0 126 125" fill="none" xmlns="http://www.w3.org/2000/svg">
<circle cx="63" cy="62.5" r="62.5" fill="#E93037"/>
<path d="M38.8202 32.3738C34.6277 33.1131 30.1561 35.4816 27.8123 36.2228C27.7787 36.2437 27.7392 36.273 27.7069 36.301C26.0149 36.9348 24.4339 37.944 23.3048 39.4026C22.1758 40.8613 21.5798 42.8073 21.9469 44.8891C22.3624 47.2456 23.9553 48.9249 25.8851 49.9783L25.7415 55.2507C25.7241 55.4475 25.7368 55.6465 25.7857 55.8392L25.86 59.6421C25.2986 60.6429 24.9485 61.912 25.2098 63.3939C25.6227 65.7359 27.2689 67.1673 28.6481 67.6769C29.3505 67.9406 29.504 67.839 29.9917 67.8573C33.7896 73.1651 40.0942 77.0918 46.4198 76.8261L46.8824 76.7445C52.9174 74.8307 57.4988 68.9845 59.2524 62.6979C59.7044 62.5139 59.8834 62.5568 60.4532 62.0688C61.575 61.1182 62.6323 59.2101 62.2193 56.8681C61.958 55.3863 61.1949 54.3134 60.3251 53.5649L59.0841 49.9081C59.0607 49.7334 59.0071 49.5565 58.9345 49.3979L56.9963 44.4926C57.3867 44.0437 57.6984 43.5713 57.9965 43.0641C58.0896 42.9582 58.3503 42.7036 58.3503 42.7036L58.2143 42.6083C58.8612 41.3316 59.2279 39.903 58.9564 38.3633C58.5893 36.2815 57.3599 34.635 55.7936 33.6143C54.2444 32.6056 52.3876 32.1355 50.5385 32.2156C50.524 32.2181 50.4951 32.2232 50.4807 32.2258C47.2722 32.2474 42.7669 31.6779 38.8202 32.3738ZM39.4728 36.0748C42.5376 35.5344 46.9663 36.0503 50.6128 36.0185C50.6345 36.0147 50.6489 36.0121 50.6706 36.0083C51.831 35.9528 52.9181 36.2008 53.7183 36.7231C54.5184 37.2453 55.0681 37.9533 55.2555 39.0159C55.36 39.6086 55.2965 40.1788 55.1362 40.7064C54.8984 40.9645 54.2865 41.5941 53.2855 42.0464C52.364 42.4662 51.4003 42.7423 50.0222 42.0143C49.1042 41.5293 47.9404 41.5551 47.2546 42.3347C46.5688 43.1142 46.6357 44.3241 47.5268 44.8571C49.6363 46.1188 51.7638 46.2745 53.4857 45.8867L54.4344 48.2237C51.5053 48.1812 46.5131 48.1895 41.7568 49.0281C37.0005 49.8668 32.3066 51.5665 29.5686 52.6082L29.7017 49.3054C29.7017 49.3054 29.6988 48.9929 30.1951 48.3836C30.5179 47.9873 31.0116 47.5231 31.8983 47.1445C32.8527 46.737 33.5562 45.8038 33.376 44.7818C33.1958 43.7599 32.212 43.0592 31.2308 43.3969C29.3606 44.0405 28.0747 45.0503 27.2769 46.0362C27.1672 46.1748 27.0864 46.3083 26.9911 46.4443C26.3211 45.8991 25.8122 45.169 25.6478 44.2365C25.4605 43.1739 25.6876 42.4333 26.2707 41.6821C26.8286 40.9576 27.8203 40.2834 28.9275 39.8422C32.0052 38.8672 36.2634 36.6407 39.4728 36.0748ZM42.4094 52.7291C45.973 52.1007 50.5914 52.0019 53.7264 51.9857L54.4911 56.3228L56.6885 55.9353C56.7404 55.9336 57.0614 55.9366 57.4913 56.0919C57.9454 56.2578 58.3119 56.3497 58.5183 57.5207C58.7248 58.6917 58.4118 58.9034 58.0419 59.2146C57.6719 59.5258 57.2833 59.6465 57.2833 59.6465L56.1369 59.9082L55.8579 61.0307C54.5981 66.3135 50.4641 71.4845 45.9884 73.0265C41.2551 73.1083 35.6018 69.6631 32.6112 65.1297L31.9651 64.1704L30.7983 64.3165C30.7983 64.3165 30.3919 64.336 29.9378 64.1701C29.4837 64.0042 29.1172 63.9123 28.9107 62.7413C28.7042 61.5703 29.0172 61.3586 29.3872 61.0474C29.738 60.7545 30.0386 60.6419 30.0879 60.6257L32.2854 60.2382L31.5206 55.9012C34.472 54.8441 38.8458 53.3574 42.4094 52.7291Z" fill="white"/>
<path d="M88.0281 51.2406C84.0277 49.7846 78.9709 49.6 76.5705 49.07C76.531 49.0712 76.4821 49.0769 76.4401 49.085C74.658 48.7879 72.7842 48.8713 71.0771 49.57C69.3699 50.2688 67.8808 51.6561 67.1578 53.6425C66.3394 55.891 66.8793 58.1418 68.0238 60.019L65.2633 64.5132C65.1497 64.675 65.0612 64.8537 65.0072 65.0449L63.1701 68.3755C62.1835 68.9615 61.2458 69.8856 60.7311 71.2995C59.9178 73.5342 60.6277 75.597 61.5673 76.7279C62.0438 77.3075 62.2275 77.2962 62.6407 77.556C63.2759 84.0516 66.7725 90.6045 72.3835 93.5372L72.8249 93.6978C79.0083 95.0579 85.899 92.2857 90.5609 87.7181C91.0443 87.7847 91.1779 87.9114 91.9154 87.7737C93.3622 87.5113 95.2318 86.3875 96.0452 84.1528C96.5599 82.7389 96.4354 81.4282 96.0564 80.3451L96.81 76.5577C96.8771 76.3947 96.9192 76.2147 96.9356 76.041L97.7097 70.8238C98.2723 70.6302 98.7784 70.377 99.2902 70.0868C99.4238 70.0417 99.7768 69.9515 99.7768 69.9515L99.7067 69.801C100.905 69.0187 101.937 67.9649 102.472 66.4958C103.195 64.5093 102.953 62.4687 102.107 60.8016C101.27 59.1534 99.8971 57.8179 98.2556 56.9627C98.2418 56.9577 98.2142 56.9476 98.2004 56.9426C95.4109 55.3571 91.7941 52.6113 88.0281 51.2406ZM86.7428 54.772C89.6673 55.8364 93.2447 58.4976 96.4185 60.2933C96.4392 60.3008 96.453 60.3058 96.4737 60.3134C97.5063 60.8454 98.3238 61.6038 98.7556 62.4562C99.1875 63.3085 99.3095 64.1965 98.9404 65.2104C98.7346 65.776 98.3946 66.2381 97.9919 66.6148C97.657 66.7195 96.8122 66.9588 95.7192 66.85C94.7112 66.7527 93.7386 66.51 92.9092 65.1905C92.3566 64.3114 91.3358 63.752 90.3521 64.0841C89.3684 64.4163 88.8215 65.4976 89.3266 66.4047C90.5227 68.5521 92.2874 69.7507 93.9724 70.2759L93.6255 72.7741C91.11 71.2727 86.7826 68.7838 82.2442 67.1319C77.7057 65.4801 72.7909 64.6051 69.8988 64.1383L71.6656 61.3445C71.6656 61.3445 71.8193 61.0724 72.5537 60.7929C73.0314 60.6112 73.6911 60.456 74.6482 60.5714C75.6785 60.6957 76.7544 60.2393 77.1093 59.2642C77.4643 58.289 76.9626 57.1903 75.944 56.9921C74.0026 56.6145 72.384 56.846 71.2002 57.3009C71.0359 57.3661 70.8991 57.4413 70.7486 57.5115C70.441 56.7043 70.3653 55.8176 70.6892 54.9278C71.0582 53.9139 71.6253 53.3861 72.5058 53.027C73.3512 52.6786 74.5471 52.5905 75.7266 52.7621C78.8795 53.4566 83.6804 53.6574 86.7428 54.772ZM80.9588 70.6633C84.3592 71.901 88.4083 74.1246 91.1313 75.6781L89.6251 79.8164L91.7218 80.5796C91.7676 80.6041 92.0441 80.7672 92.3387 81.1166C92.649 81.4873 92.9205 81.7501 92.5138 82.8675C92.1071 83.9848 91.7302 84.0117 91.2542 84.0962C90.7783 84.1807 90.3813 84.0909 90.3813 84.0909L89.2577 83.7444L88.4548 84.577C84.7224 88.5222 78.5567 90.9334 73.9096 90.0309C69.7696 87.7352 66.5963 81.9248 66.2731 76.5035L66.1932 75.3497L65.1097 74.8928C65.1097 74.8928 64.7479 74.7065 64.4376 74.3357C64.1273 73.965 63.8559 73.7022 64.2625 72.5849C64.6692 71.4675 65.0461 71.4406 65.5221 71.3561C65.9724 71.2779 66.2891 71.3306 66.3398 71.3413L68.4366 72.1045L69.9429 67.9661C73.0274 68.5264 77.5585 69.4257 80.9588 70.6633Z" fill="white"/>
</svg>
