<svg width="126" height="125" viewBox="0 0 126 125" fill="none" xmlns="http://www.w3.org/2000/svg">
<circle cx="63" cy="62.5" r="62.5" fill="#E93037"/>
<path d="M62.7724 33.3726C57.2379 33.3726 51.9302 35.5711 48.0168 39.4845C44.1033 43.398 41.9048 48.7057 41.9048 54.2401C41.9048 59.7746 44.1033 65.0823 48.0168 68.9957C51.9302 72.9092 57.2379 75.1077 62.7724 75.1077C68.3068 75.1077 73.6145 72.9092 77.528 68.9957C81.4414 65.0823 83.6399 59.7746 83.6399 54.2401C83.6399 48.7057 81.4414 43.398 77.528 39.4845C73.6145 35.5711 68.3068 33.3726 62.7724 33.3726V33.3726Z" stroke="white" stroke-width="4"/>
<path d="M45.3825 67.2822L36.3385 76.7865C35.9017 77.2455 36.0867 78.0025 36.686 78.2082L44.9759 81.0544C45.2321 81.1423 45.4327 81.3447 45.5184 81.6018L48.4155 90.2931C48.6199 90.9063 49.3941 91.094 49.8511 90.637C52.3932 88.0949 59.1973 81.2908 62.7721 77.716L75.689 90.6329C76.1461 91.09 76.9243 90.9063 77.1287 90.2931L80.0243 81.6064C80.1108 81.3467 80.3146 81.143 80.5742 81.0565L89.2609 78.1609C89.8741 77.9565 90.0578 77.1783 89.6008 76.7212L80.1618 67.2822" stroke="white" stroke-width="4"/>
</svg>
